<?xml version="1.0" standalone="no"?>
<!DOCTYPE svg PUBLIC "-//W3C//DTD SVG 20010904//EN"
 "http://www.w3.org/TR/2001/REC-SVG-20010904/DTD/svg10.dtd">
<svg version="1.0" xmlns="http://www.w3.org/2000/svg"
 width="512.000000pt" height="512.000000pt" viewBox="0 0 512.000000 512.000000"
 preserveAspectRatio="xMidYMid meet">

<g transform="translate(0.000000,512.000000) scale(0.100000,-0.100000)"
fill="#000000" stroke="none">
<path d="M2435 4884 c-834 -62 -1540 -521 -1909 -1243 -170 -333 -250 -664
-250 -1041 1 -276 31 -469 114 -720 137 -418 394 -788 742 -1071 326 -264 718
-431 1139 -485 168 -21 514 -15 659 11 492 89 906 302 1245 640 355 354 567
771 652 1280 25 151 25 544 0 690 -43 250 -107 448 -217 670 -334 677 -989
1148 -1735 1249 -115 15 -354 26 -440 20z m415 -68 c493 -67 935 -284 1286
-632 348 -346 563 -776 639 -1279 23 -151 24 -451 1 -609 -59 -411 -223 -789
-483 -1111 -105 -131 -353 -369 -368 -354 -2 3 -11 78 -20 169 -48 507 -139
827 -278 978 -52 56 -78 69 -210 103 -173 46 -353 139 -464 242 -35 33 -43 46
-43 76 0 33 4 38 47 61 147 78 280 224 359 395 19 42 42 76 52 79 41 13 113
68 141 107 62 85 102 251 80 332 -14 54 -58 97 -99 97 l-31 0 8 68 c15 124 7
319 -16 407 -41 156 -127 284 -262 389 -338 265 -792 286 -1151 53 -29 -18
-69 -40 -88 -47 -125 -48 -221 -167 -267 -331 -23 -82 -23 -347 -1 -455 l15
-72 -37 -11 c-95 -28 -119 -125 -73 -291 31 -114 89 -191 174 -230 47 -23 55
-31 81 -89 65 -146 184 -287 311 -370 63 -41 67 -46 67 -81 0 -33 -7 -44 -52
-86 -135 -121 -341 -222 -520 -254 -75 -14 -114 -36 -167 -96 -135 -154 -245
-558 -276 -1014 -10 -145 -4 -140 -89 -70 -346 286 -612 715 -726 1170 -48
190 -63 315 -63 530 -1 224 16 359 69 568 217 853 931 1505 1804 1646 140 23
139 23 350 24 119 1 236 -4 300 -12z m-544 -911 c326 -78 602 -90 748 -34 l51
19 33 -37 c83 -96 164 -267 204 -431 21 -87 21 -99 10 -210 -15 -145 -41 -241
-98 -357 -216 -439 -740 -570 -1123 -280 -126 96 -234 262 -285 438 -30 101
-49 274 -40 350 20 172 104 368 231 543 l45 61 61 -19 c34 -11 108 -30 163
-43z m-581 -547 c9 -35 21 -103 26 -152 5 -49 16 -114 24 -145 8 -30 13 -57
10 -59 -8 -8 -45 20 -79 59 -43 50 -75 140 -82 234 -6 62 -4 73 16 98 12 15
31 27 44 27 20 0 26 -9 41 -62z m1794 36 c53 -67 0 -278 -89 -358 -22 -20 -44
-36 -48 -36 -5 0 0 39 10 88 10 48 18 113 18 145 0 32 7 82 16 110 9 29 18 58
20 65 6 22 52 13 73 -14z m-1139 -1005 c102 -29 292 -30 399 -2 l74 20 -7 -58
c-8 -77 -26 -118 -76 -173 -61 -66 -118 -91 -210 -90 -61 0 -84 5 -125 26 -96
50 -149 132 -162 249 -6 58 -5 62 13 56 10 -3 53 -16 94 -28z m18 -332 c27
-15 74 -31 103 -35 l54 -9 -78 -36 -79 -37 56 -79 c31 -43 56 -85 55 -93 0 -7
-8 -30 -18 -52 l-17 -38 -46 68 c-57 87 -90 151 -116 234 -16 50 -42 165 -42
187 0 1 18 -17 40 -40 21 -24 61 -55 88 -70z m438 33 c-8 -67 -45 -188 -77
-253 -28 -57 -92 -157 -101 -157 -3 0 -11 22 -18 50 l-12 50 49 67 c27 38 53
74 57 81 5 9 -15 23 -71 49 l-78 36 51 12 c61 14 127 51 168 94 17 17 32 31
34 31 3 0 2 -27 -2 -60z"/>
</g>
</svg>
