<?xml version="1.0" standalone="no"?>
<!DOCTYPE svg PUBLIC "-//W3C//DTD SVG 20010904//EN"
 "http://www.w3.org/TR/2001/REC-SVG-20010904/DTD/svg10.dtd">
<svg version="1.0" xmlns="http://www.w3.org/2000/svg"
 width="525.000000pt" height="200.000000pt" viewBox="0 0 525.000000 200.000000"
 preserveAspectRatio="xMidYMid meet">

<g transform="translate(0.000000,200.000000) scale(0.100000,-0.100000)"
fill="#000000" stroke="none">
<path d="M1 1993 c0 -5 4 -17 9 -28 8 -18 9 -17 9 8 1 15 -3 27 -9 27 -5 0
-10 -3 -9 -7z"/>
<path d="M43 1988 c2 -55 -3 -69 -23 -63 -19 6 -20 2 -20 -146 0 -139 1 -151
15 -133 15 18 15 18 13 -6 -2 -14 -9 -24 -16 -22 -7 1 -12 -8 -12 -20 0 -17 3
-19 9 -10 7 11 10 10 15 -3 10 -28 7 -45 -9 -45 -8 0 -15 -7 -15 -15 0 -9 6
-12 15 -9 12 5 15 -4 17 -47 1 -30 1 -63 -1 -74 -5 -52 0 -130 9 -139 18 -18
11 -27 -15 -20 l-25 6 0 -158 c0 -86 2 -155 4 -153 2 2 7 51 9 108 3 57 11
109 16 114 8 8 11 4 11 -12 0 -12 4 -20 9 -17 5 4 8 -2 6 -11 -1 -10 2 -23 7
-30 15 -18 19 -61 7 -69 -8 -5 -7 -9 2 -14 10 -7 10 -11 0 -24 -8 -9 -9 -16
-4 -16 6 0 11 -29 11 -64 1 -52 -2 -65 -16 -71 -11 -4 -13 -9 -5 -13 6 -4 14
-21 17 -39 7 -30 6 -31 -34 -38 l-42 -7 4 -128 c1 -71 6 -126 10 -124 7 4 11
-8 23 -68 2 -10 -2 -18 -8 -18 -7 0 -5 -5 3 -10 11 -7 12 -12 3 -18 -6 -4 -14
-29 -16 -56 -3 -26 -8 -51 -11 -54 -3 -3 -1 -11 5 -18 7 -8 7 -14 -1 -19 -8
-5 -8 -11 1 -21 9 -11 9 -24 0 -53 -6 -21 -11 -54 -11 -74 0 -36 0 -36 32 -26
18 6 41 12 51 14 57 13 57 13 56 81 -1 35 -6 67 -11 70 -7 4 -7 9 0 13 8 5 21
210 22 344 0 32 3 37 23 36 12 0 16 -3 10 -6 -10 -3 -10 -8 1 -19 16 -15 20
-102 20 -341 -1 -120 1 -143 14 -145 9 -2 -38 -18 -103 -37 -66 -19 -114 -36
-108 -38 6 -2 51 8 99 21 123 36 301 95 288 95 -7 1 -42 -8 -79 -20 -37 -11
-69 -18 -72 -15 -3 3 6 8 21 12 l26 6 0 249 c0 242 1 249 20 249 18 0 20 -7
21 -62 1 -109 18 -113 18 -5 1 96 1 97 25 97 22 0 24 -5 28 -57 3 -32 3 -142
2 -245 -1 -104 1 -188 4 -188 16 1 34 19 28 28 -4 6 -7 91 -8 188 -2 167 0
178 18 185 10 4 22 8 27 8 4 1 7 -39 7 -89 0 -49 3 -90 8 -90 4 0 7 60 7 133
0 127 1 132 21 135 20 3 22 -2 23 -50 0 -29 4 -135 8 -236 7 -154 6 -182 -6
-182 -8 0 -12 -2 -9 -5 7 -7 73 12 393 112 l250 78 1484 3 c1666 2 1474 10
1731 -68 52 -16 106 -31 120 -34 77 -14 160 -40 150 -46 -16 -10 33 -22 57
-14 15 5 16 4 3 -6 -12 -9 -10 -11 12 -7 16 2 25 0 21 -6 -3 -5 3 -6 16 -2 13
4 21 2 21 -5 0 -6 4 -9 10 -5 12 7 51 -26 43 -38 -3 -5 3 -6 15 -3 24 8 74 -3
67 -14 -3 -5 7 -9 22 -8 22 0 201 -54 286 -87 14 -6 17 -1 17 29 0 32 -3 36
-26 36 -15 0 -43 5 -63 11 l-36 11 2 121 c1 67 5 167 8 222 4 55 7 113 7 128
0 25 3 28 32 25 l31 -3 3 -252 c1 -157 6 -253 12 -253 9 0 17 362 11 458 -2
17 2 32 8 32 7 0 11 28 11 75 0 68 -2 75 -20 75 -19 0 -20 7 -20 189 0 105 4
192 9 195 13 8 21 -20 10 -31 -7 -7 -6 -12 3 -15 11 -5 13 79 15 458 1 291 -1
464 -7 464 -6 0 -10 -29 -10 -65 l0 -65 -36 0 c-34 0 -35 1 -32 33 2 17 8 31
13 29 6 -2 9 -12 7 -22 -2 -11 2 -20 9 -20 8 0 10 12 5 38 -3 20 -6 45 -6 55
0 15 -10 17 -79 17 l-80 0 1 -62 c1 -87 -1 -98 -13 -98 -7 0 -9 28 -7 80 l3
80 -32 0 -32 0 -3 -87 c-2 -60 -7 -88 -16 -91 -10 -3 -12 11 -9 67 6 85 1 111
-24 111 -17 0 -19 -9 -19 -95 0 -69 -3 -95 -12 -95 -10 0 -13 25 -12 95 2 88
1 95 -18 95 -18 0 -19 -6 -16 -97 2 -82 0 -98 -12 -98 -13 0 -14 16 -12 98 l3
97 -115 0 -115 0 -4 -122 -3 -123 -2 123 c-2 101 -5 122 -17 122 -12 0 -15
-18 -15 -100 0 -60 -4 -100 -10 -100 -7 0 -8 26 -3 72 5 57 4 70 -7 63 -10 -6
-12 0 -7 29 l6 36 -1990 0 -1989 0 0 -85 c0 -50 -4 -85 -10 -85 -6 0 -10 35
-10 85 0 77 -2 85 -19 85 -10 0 -22 -10 -26 -22 l-8 -23 -4 23 c-3 13 -12 22
-24 22 -17 0 -18 -7 -16 -75 1 -55 -1 -75 -10 -75 -9 0 -13 22 -13 75 l0 75
-35 0 c-28 0 -35 -4 -35 -20 0 -12 -5 -17 -13 -14 -10 3 -14 -6 -15 -36 -1
-29 2 -40 13 -40 8 0 15 -4 15 -10 0 -12 -17 -12 -44 -1 -17 6 -19 16 -17 64
l2 57 -45 0 c-49 0 -49 0 -46 -62 1 -34 -1 -38 -22 -38 -40 0 -53 15 -49 59 2
39 1 41 -27 41 -17 0 -30 -5 -29 -12z m174 -20 c-3 -8 -6 -5 -6 6 -1 11 2 17
5 13 3 -3 4 -12 1 -19z m4553 14 c0 -5 -7 -9 -15 -9 -8 0 -12 4 -9 9 3 4 9 8
15 8 5 0 9 -4 9 -8z m405 -11 c3 -5 1 -12 -5 -16 -5 -3 -10 1 -10 9 0 18 6 21
15 7z m-4590 -10 c3 -5 8 -39 11 -75 4 -60 3 -66 -14 -66 -17 0 -20 8 -21 75
-1 68 7 92 24 66z m155 -81 c0 -56 -4 -90 -10 -90 -10 0 -13 156 -3 173 10 18
13 1 13 -83z m3687 48 c-3 -7 -5 -2 -5 12 0 14 2 19 5 13 2 -7 2 -19 0 -25z
m697 16 c3 -8 2 -12 -4 -9 -6 3 -10 10 -10 16 0 14 7 11 14 -7z m-4434 -14 c0
-11 -4 -20 -10 -20 -5 0 -10 9 -10 20 0 11 5 20 10 20 6 0 10 -9 10 -20z
m-373 -22 c-3 -7 -5 -2 -5 12 0 14 2 19 5 13 2 -7 2 -19 0 -25z m2120 0 c-3
-7 -5 -2 -5 12 0 14 2 19 5 13 2 -7 2 -19 0 -25z m2333 -38 c0 -53 -3 -70 -14
-70 -11 0 -14 16 -12 70 1 49 5 70 14 70 8 0 12 -21 12 -70z m-3988 28 c-9 -9
-12 -7 -12 12 0 19 3 21 12 12 9 -9 9 -15 0 -24z m171 19 c3 -8 1 -20 -4 -28
-6 -10 -9 -7 -9 14 0 29 5 35 13 14z m386 -8 c-16 -10 -23 -4 -14 10 3 6 11 8
17 5 6 -4 5 -9 -3 -15z m971 0 c0 -5 -9 -9 -20 -9 -19 0 -26 11 -14 23 8 8 34
-3 34 -14z m74 -31 c3 -29 6 -83 6 -120 0 -66 -1 -68 -25 -68 -24 0 -25 2 -23
63 l2 62 3 -57 c7 -106 18 -60 14 57 -3 120 11 160 23 63z m418 18 c3 -15 0
-27 -8 -30 -19 -7 -26 8 -18 38 7 30 20 26 26 -8z m1858 7 c-1 -24 -2 -26 -11
-10 -5 9 -7 22 -4 27 10 17 15 11 15 -17z m-3380 13 c0 -2 -7 -6 -15 -10 -8
-3 -15 -1 -15 4 0 6 7 10 15 10 8 0 15 -2 15 -4z m1067 -63 c-2 -16 -4 -5 -4
22 0 28 2 40 4 28 2 -13 2 -35 0 -50z m1516 -80 l6 -83 -29 0 c-25 0 -30 4
-30 25 0 14 5 25 11 25 6 0 9 -9 6 -20 -3 -11 -1 -20 3 -20 5 0 9 46 9 103 0
56 0 107 1 112 4 22 18 -65 23 -142z m137 122 c0 -14 -2 -25 -4 -25 -2 0 -6
11 -8 25 -3 14 -1 25 3 25 5 0 9 -11 9 -25z m340 -2 c-4 -63 0 -114 10 -108 6
4 10 -7 10 -24 0 -17 -4 -32 -10 -32 -34 -6 -35 -4 -32 66 3 75 10 125 19 125
2 0 4 -12 3 -27z m-1308 -49 c5 -78 -1 -126 -13 -118 -5 3 -9 0 -9 -5 0 -6 -5
-11 -11 -11 -7 0 -9 16 -5 48 3 26 7 65 9 87 2 22 5 46 6 53 0 6 5 12 10 12 5
0 11 -30 13 -66z m1400 -17 c1 -42 -1 -79 -5 -83 -4 -4 -7 32 -7 81 0 107 8
109 12 2z m177 6 c-1 -64 -2 -65 -9 -24 -6 40 -3 91 6 91 2 0 3 -30 3 -67z
m448 30 c-3 -10 -5 -4 -5 12 0 17 2 24 5 18 2 -7 2 -21 0 -30z m-4409 9 c2 -7
-2 -10 -12 -6 -9 3 -16 11 -16 16 0 13 23 5 28 -10z m39 -12 c-2 -29 -17 -24
-17 6 0 14 4 23 9 19 6 -3 9 -14 8 -25z m795 -75 c-1 -81 12 -117 21 -57 4 25
4 25 6 -5 1 -30 -2 -33 -27 -33 l-27 0 7 88 c3 48 7 91 7 96 1 5 4 6 7 3 4 -4
6 -45 6 -92z m-1025 63 c-3 -8 -6 -5 -6 6 -1 11 2 17 5 13 3 -3 4 -12 1 -19z
m826 -46 c-1 -37 -2 -77 -2 -89 -1 -14 -7 -23 -16 -23 -12 0 -15 16 -15 88 0
76 2 88 18 89 15 1 17 -7 15 -65z m69 33 c-2 -20 -10 -35 -17 -35 -7 0 -15 15
-17 35 -3 30 -1 35 17 35 18 0 20 -5 17 -35z m962 26 c5 -1 3 -8 -4 -16 -7 -8
-10 -21 -7 -29 5 -12 -11 -26 -29 -26 -2 0 -4 18 -4 39 0 32 3 39 18 36 9 -2
21 -4 26 -4z m2343 -28 c-3 -10 -5 -4 -5 12 0 17 2 24 5 18 2 -7 2 -21 0 -30z
m53 27 c0 -5 -4 -10 -10 -10 -5 0 -10 5 -10 10 0 6 5 10 10 10 6 0 10 -4 10
-10z m-3744 -35 c-2 -14 -7 -25 -12 -25 -5 0 -9 5 -8 10 1 6 2 19 3 31 0 11 5
18 10 14 5 -3 8 -17 7 -30z m60 -92 c-10 -10 -36 12 -35 31 0 20 1 20 9 1 6
-15 9 -4 11 40 l2 60 8 -65 c4 -35 7 -66 5 -67z m590 37 c1 -59 -2 -80 -11
-80 -10 0 -12 18 -11 68 4 95 5 106 13 98 4 -4 8 -43 9 -86z m51 8 c-3 -20 0
-41 6 -47 8 -8 8 -11 -1 -11 -6 0 -9 -7 -6 -15 4 -9 0 -15 -9 -15 -12 0 -14
11 -12 53 1 28 3 68 4 87 2 34 3 34 12 10 6 -14 8 -41 6 -62z m115 13 c3 -78
1 -101 -13 -101 -5 0 -9 38 -9 85 0 102 17 114 22 16z m310 -23 c2 -43 0 -78
-4 -78 -5 0 -8 39 -7 88 1 103 7 98 11 -10z m780 8 c0 -43 4 -74 9 -70 5 3 9
0 9 -5 0 -6 -11 -11 -25 -11 -21 0 -25 5 -25 28 0 36 21 144 27 138 2 -2 4
-38 5 -80z m633 74 c3 -5 1 -10 -4 -10 -6 0 -11 5 -11 10 0 6 2 10 4 10 3 0 8
-4 11 -10z m-1786 -59 c-1 -26 1 -53 5 -59 4 -7 3 -12 -3 -12 -6 0 -8 -7 -5
-15 4 -10 0 -15 -10 -15 -13 0 -15 9 -12 48 2 26 4 62 5 80 1 20 5 31 11 27 6
-4 10 -28 9 -54z m119 -26 c-1 -57 -5 -75 -15 -75 -11 0 -13 14 -9 68 3 37 5
73 5 80 1 7 5 10 11 7 5 -3 9 -39 8 -80z m315 3 c2 -43 1 -78 -4 -78 -5 0 -9
37 -9 82 0 101 6 99 13 -4z m795 -4 c3 40 8 31 16 -26 l7 -48 -32 0 -32 0 6
63 c9 96 21 114 28 42 3 -33 6 -47 7 -31z m-2314 61 c3 -8 1 -15 -4 -15 -6 0
-10 7 -10 15 0 8 2 15 4 15 2 0 6 -7 10 -15z m439 -52 c2 -29 0 -53 -4 -53 -5
0 -9 28 -8 63 1 71 5 67 12 -10z m1381 0 c2 -33 6 -65 10 -72 4 -7 0 -11 -11
-11 -15 0 -18 10 -21 53 -2 52 5 103 14 95 2 -3 6 -32 8 -65z m885 5 l-2 -63
-7 45 c-8 41 -5 80 6 80 2 0 3 -28 3 -62z m945 -3 c0 -31 -3 -55 -9 -55 -6 0
-9 25 -7 61 5 74 14 71 16 -6z m-1058 18 c-11 -11 -17 4 -9 23 7 18 8 18 11 1
2 -10 1 -21 -2 -24z m224 -33 c0 -49 -4 -70 -12 -70 -9 0 -13 21 -13 70 0 49
4 70 13 70 8 0 12 -21 12 -70z m-2040 -5 c0 -36 -4 -65 -8 -65 -5 0 -8 21 -7
48 3 71 5 82 10 82 3 0 5 -29 5 -65z m590 51 c0 -8 -4 -18 -10 -21 -5 -3 -10
3 -10 14 0 12 5 21 10 21 6 0 10 -6 10 -14z m1510 -51 c0 -36 -4 -65 -9 -65
-4 0 -9 29 -10 65 -1 39 2 65 9 65 6 0 10 -27 10 -65z m60 56 c0 -6 -4 -13
-10 -16 -5 -3 -10 1 -10 9 0 9 5 16 10 16 6 0 10 -4 10 -9z m50 -58 c0 -70
-10 -80 -16 -16 -4 38 2 83 11 83 3 0 5 -30 5 -67z m308 -13 c-1 -14 1 -31 5
-38 5 -7 3 -12 -7 -12 -13 0 -16 13 -15 68 1 57 2 62 10 37 5 -16 8 -41 7 -55z
m779 58 c-3 -8 -6 -5 -6 6 -1 11 2 17 5 13 3 -3 4 -12 1 -19z m-2812 -48 c0
-42 -3 -60 -12 -60 -9 0 -13 18 -13 60 0 41 4 60 13 60 8 0 12 -19 12 -60z
m1405 0 c0 -53 -2 -60 -19 -60 -16 0 -19 6 -17 28 2 15 4 42 5 60 1 21 6 32
16 32 12 0 15 -13 15 -60z m100 0 c0 -47 -3 -60 -15 -60 -14 0 -21 21 -15 45
1 6 2 25 2 43 -1 22 3 32 13 32 12 0 15 -14 15 -60z m-1893 18 c-3 -7 -5 -2
-5 12 0 14 2 19 5 13 2 -7 2 -19 0 -25z m545 -25 c-2 -7 -9 -13 -14 -13 -6 0
-7 7 -4 16 3 9 6 25 7 37 1 20 2 20 8 -3 4 -14 6 -31 3 -37z m182 42 c3 -9 0
-15 -9 -15 -8 0 -15 7 -15 15 0 8 4 15 9 15 5 0 11 -7 15 -15z m563 -11 c-3
-3 -12 -4 -19 -1 -8 3 -5 6 6 6 11 1 17 -2 13 -5z m-2707 -46 c0 -11 9 -31 20
-45 27 -34 25 -43 -7 -44 -17 -1 -21 -3 -10 -6 9 -2 17 -9 17 -15 0 -5 -7 -8
-15 -4 -10 4 -15 -1 -15 -14 0 -22 16 -27 23 -7 3 7 6 5 6 -5 1 -10 5 -18 11
-18 6 0 11 -65 12 -162 2 -90 7 -163 11 -163 5 0 8 86 9 192 0 106 3 204 5
218 8 41 25 29 21 -15 -2 -28 0 -40 9 -40 8 0 13 -14 13 -40 0 -25 -5 -40 -12
-40 -9 0 -8 -4 2 -10 8 -5 10 -10 4 -10 -18 0 -26 -31 -13 -46 6 -8 9 -14 7
-14 -3 0 -2 -17 2 -38 5 -27 3 -42 -7 -51 -9 -8 -11 -20 -7 -30 4 -9 8 -29 8
-46 2 -29 4 -30 54 -33 37 -2 52 1 52 9 0 10 3 10 12 1 7 -7 42 -12 88 -12
l75 0 2 136 c2 133 5 155 20 141 7 -8 10 -48 12 -184 1 -76 4 -93 16 -93 13 0
15 22 15 136 0 93 3 133 11 129 6 -4 8 -14 5 -22 -4 -9 -1 -22 5 -29 7 -8 8
-25 4 -41 -14 -51 -11 -172 3 -178 26 -10 33 7 28 61 -4 46 -2 55 14 64 18 10
20 7 20 -25 0 -20 -5 -35 -12 -35 -9 0 -9 -3 -1 -11 6 -6 9 -17 7 -24 -3 -6 2
-18 11 -25 13 -11 15 0 16 106 1 66 3 111 6 102 2 -10 11 -18 19 -18 14 0 15
-9 19 -150 0 -19 5 -36 10 -37 6 -1 9 23 7 58 -3 37 0 59 7 59 6 0 10 -23 10
-59 -1 -33 2 -65 6 -71 6 -10 -28 -11 -146 -6 -85 3 -236 6 -336 7 l-181 2 3
141 c2 78 4 196 5 264 1 70 6 120 11 116 5 -3 9 -14 9 -26z m1256 -3 c-6 -19
-14 -35 -18 -35 -5 0 -8 16 -8 35 0 27 4 35 19 35 16 0 17 -4 7 -35z m599 25
c3 -5 1 -10 -4 -10 -6 0 -11 5 -11 10 0 6 2 10 4 10 3 0 8 -4 11 -10z m42 -12
c-3 -8 -6 -5 -6 6 -1 11 2 17 5 13 3 -3 4 -12 1 -19z m320 -16 c1 -25 -3 -32
-18 -32 -15 0 -19 7 -19 36 0 28 3 35 18 32 11 -2 18 -14 19 -36z m920 16 c-3
-8 -6 -5 -6 6 -1 11 2 17 5 13 3 -3 4 -12 1 -19z m-3060 -30 c-3 -7 -5 -2 -5
12 0 14 2 19 5 13 2 -7 2 -19 0 -25z m2050 0 c-3 -7 -5 -2 -5 12 0 14 2 19 5
13 2 -7 2 -19 0 -25z m270 -10 c-3 -8 -6 -5 -6 6 -1 11 2 17 5 13 3 -3 4 -12
1 -19z m2704 -49 c26 -26 24 -39 -6 -39 -22 0 -25 -4 -25 -34 0 -32 2 -35 28
-33 l27 2 5 -168 5 -167 -220 -1 c-121 0 -240 -3 -265 -5 -32 -3 -41 -2 -30 6
8 5 81 10 168 10 114 0 152 3 153 13 0 10 2 10 6 0 14 -37 20 5 27 183 6 185
14 234 36 234 10 0 12 -38 14 -287 1 -124 6 -156 23 -139 4 4 9 94 11 199 3
253 9 340 19 274 3 -16 13 -37 24 -48z m-3141 51 c0 -5 -2 -10 -4 -10 -3 0 -8
5 -11 10 -3 6 -1 10 4 10 6 0 11 -4 11 -10z m477 -6 c-3 -3 -12 -4 -19 -1 -8
3 -5 6 6 6 11 1 17 -2 13 -5z m-1484 -130 c4 -37 3 -41 -14 -37 -14 4 -16 9
-9 23 6 10 10 29 10 41 0 34 7 19 13 -27z m3321 30 c3 -9 6 -97 6 -196 0 -100
2 -179 5 -177 2 3 7 79 11 170 3 90 8 171 11 179 10 28 22 -21 22 -93 1 -44 5
-66 11 -62 6 4 10 12 9 18 -4 33 1 40 16 21 17 -22 21 -149 5 -159 -5 -3 -10
-22 -10 -41 0 -31 2 -34 30 -34 32 0 42 23 15 33 -11 5 -14 29 -12 131 2 69 6
129 11 133 17 17 26 -28 24 -127 -2 -183 -5 -170 50 -170 l47 0 -3 58 c-2 32
1 81 6 109 5 32 5 57 -1 68 -9 17 6 45 18 33 8 -7 7 -220 0 -251 -6 -22 -4
-26 8 -21 9 3 24 1 34 -5 13 -8 -36 -11 -191 -9 -115 1 -223 4 -240 6 l-31 4
3 156 c2 86 4 158 6 160 2 1 10 -4 19 -12 12 -12 14 -41 11 -155 -3 -120 -2
-141 11 -141 9 0 15 10 16 23 4 82 3 157 -1 157 -10 0 -9 79 1 86 6 3 7 19 4
35 -5 22 -3 29 9 29 14 0 16 -21 16 -167 0 -91 2 -164 4 -162 2 2 6 73 7 158
2 102 8 163 17 179 7 14 10 32 8 39 -3 7 -1 13 3 13 5 0 12 -7 15 -16z m-4076
-100 c1 5 13 -7 27 -27 22 -33 23 -41 15 -94 -5 -31 -16 -64 -25 -72 -13 -14
-15 -10 -15 32 0 45 -13 58 -32 32 -4 -5 -8 1 -8 15 0 46 -19 6 -23 -50 -2
-30 -4 7 -5 83 -1 90 1 136 8 132 6 -3 10 -11 10 -16 0 -6 7 -17 15 -25 13
-14 15 -10 17 38 l1 53 7 -55 c4 -30 7 -51 8 -46z m107 70 c14 -21 14 -28 3
-42 -7 -9 -8 -13 -1 -9 7 5 9 1 6 -12 -3 -12 -11 -17 -19 -14 -8 3 -14 0 -14
-6 0 -6 5 -11 12 -11 9 0 9 -3 0 -12 -7 -7 -13 -26 -14 -42 -1 -17 -4 -6 -7
24 -7 66 -2 150 9 150 4 0 15 -12 25 -26z m883 12 c4 -4 8 -88 11 -187 l3
-179 -34 0 -35 0 -6 168 c-7 194 -5 211 29 207 14 -1 28 -6 32 -9z m2909 -8
c-3 -8 -6 -5 -6 6 -1 11 2 17 5 13 3 -3 4 -12 1 -19z m1023 18 c0 -9 -30 -14
-35 -6 -4 6 3 10 14 10 12 0 21 -2 21 -4z m-3687 -202 l4 -180 -34 4 -33 4 0
118 c0 99 3 119 16 124 9 3 20 4 25 0 5 -3 9 6 9 20 0 19 -5 26 -20 26 -24 0
-26 13 -5 30 8 7 15 22 15 33 0 14 3 18 10 11 5 -5 11 -89 13 -190z m1044 174
c-3 -8 -6 -5 -6 6 -1 11 2 17 5 13 3 -3 4 -12 1 -19z m349 4 c-4 -10 0 -27 8
-37 10 -14 11 -26 4 -44 -6 -17 -6 -27 1 -29 7 -2 11 -48 11 -125 l0 -122 -57
1 -58 1 -3 146 c-3 125 -1 147 11 147 9 0 18 6 20 13 3 6 6 -33 7 -88 4 -187
5 -205 15 -205 10 0 12 40 14 248 1 95 3 112 17 112 10 0 13 -6 10 -18z m974
-172 c0 -140 -2 -180 -12 -181 -7 0 -20 -2 -28 -4 -13 -2 -15 15 -12 121 3
119 6 129 34 125 17 -2 2 38 -16 43 -19 5 -19 6 -3 24 9 10 17 29 17 41 0 12
4 20 9 16 5 -3 10 -86 11 -185z m-2891 -12 l1 -158 -72 2 -73 2 63 3 c60 4 62
5 63 31 4 85 1 161 -6 171 -4 7 -4 43 0 79 12 107 23 47 24 -130z m1976 169
c0 -7 4 -40 9 -75 5 -40 4 -67 -2 -75 -6 -7 -7 -28 -3 -54 5 -23 5 -46 2 -52
-4 -6 -5 -26 -3 -45 3 -26 10 -36 26 -39 12 -3 6 -5 -15 -6 l-36 -1 -1 128
c-2 136 6 247 16 237 4 -4 7 -12 7 -18z m1032 1 c-3 -8 -6 -5 -6 6 -1 11 2 17
5 13 3 -3 4 -12 1 -19z m-2828 -196 c1 -93 -2 -133 -10 -130 -12 4 -21 272
-11 318 11 46 21 -45 21 -188z m1184 178 c18 -29 18 -30 -2 -30 -12 0 -21 -7
-21 -15 0 -8 0 -18 0 -22 0 -8 4 -9 33 -12 11 -1 14 -29 16 -121 l2 -120 -33
0 -33 0 -3 93 c-4 103 7 257 17 257 4 0 15 -13 24 -30z m2611 14 c9 -24 7
-162 -3 -168 -4 -3 -6 6 -3 20 3 15 -2 32 -13 44 -19 21 -30 90 -14 90 5 0 9
7 9 15 0 20 16 19 24 -1z m-3835 -195 c1 -99 -2 -126 -13 -126 -10 0 -11 9 -6
31 3 17 3 69 -1 116 -4 47 -5 108 -1 135 l6 50 7 -40 c4 -22 8 -97 8 -166z
m-294 181 c3 -5 1 -10 -4 -10 -6 0 -11 5 -11 10 0 6 2 10 4 10 3 0 8 -4 11
-10z m1446 8 c0 -2 2 -68 5 -148 3 -80 6 -153 8 -162 3 -12 -2 -18 -12 -18
-10 0 -56 -2 -104 -4 l-88 -4 0 28 c0 36 -17 48 -23 18 -3 -16 -5 -13 -6 11 0
19 2 31 6 28 3 -4 12 -2 20 4 10 9 13 2 13 -36 0 -68 7 -53 14 30 18 205 18
205 37 205 16 0 19 -8 19 -55 0 -73 16 -70 25 5 10 87 39 74 44 -20 3 -72 11
-60 11 18 0 73 6 102 21 102 5 0 9 -1 10 -2z m440 -10 c1 -7 3 -82 5 -165 3
-146 2 -153 -17 -153 -18 0 -19 8 -19 149 0 82 3 156 6 165 7 19 23 21 25 4z
m1343 -34 c3 -26 6 -100 6 -165 0 -117 0 -119 -22 -119 -23 0 -23 0 -20 152 1
84 4 159 7 166 9 26 23 10 29 -34z m126 -125 c0 -134 -2 -159 -15 -159 -12 0
-14 16 -12 95 2 52 0 95 -5 95 -4 0 -7 18 -6 40 1 22 5 40 10 40 5 0 9 10 8
23 -3 33 -1 39 10 32 6 -4 10 -70 10 -166z m-3105 3 l5 -152 -45 0 -45 0 0
129 c0 120 1 129 20 134 19 5 20 0 20 -124 0 -79 4 -129 10 -129 9 0 14 117
11 240 0 37 6 66 14 58 3 -3 7 -73 10 -156z m346 141 c1 -10 2 -82 4 -160 l2
-143 -26 0 c-20 0 -23 2 -11 10 8 5 11 12 7 16 -4 4 -2 13 4 20 7 9 7 19 1 31
-6 10 -9 34 -7 53 1 19 -2 54 -8 78 -9 35 -9 45 2 52 8 4 11 15 7 25 -3 9 -4
21 0 26 9 15 24 10 25 -8z m991 -17 c-1 -14 2 -26 8 -26 12 0 3 -69 -12 -87
-7 -9 -7 -13 1 -13 8 0 10 -13 5 -42 -9 -63 -6 -100 8 -110 8 -5 3 -8 -15 -8
l-29 0 5 158 c6 184 4 165 20 159 6 -2 11 -16 9 -31z m154 10 c-3 -14 -2 -28
4 -31 16 -10 12 -57 -7 -77 -12 -13 -14 -21 -6 -26 18 -11 20 -65 3 -79 -12
-9 -13 -14 -2 -24 17 -18 15 -59 -3 -59 -16 0 -17 3 -17 175 0 144 0 145 18
145 12 0 15 -6 10 -24z m201 -6 c-4 -19 -2 -30 4 -30 7 0 9 -13 5 -37 -4 -21
-6 -61 -6 -90 1 -28 -4 -54 -10 -58 -8 -5 -8 -11 1 -21 6 -8 9 -17 6 -21 -4
-3 -2 -12 4 -20 9 -10 7 -13 -10 -13 -21 0 -21 4 -21 160 0 141 2 160 16 160
13 0 15 -7 11 -30z m1033 -135 l0 -165 -32 1 c-31 0 -31 1 -10 10 13 5 22 15
19 21 -2 7 0 21 5 32 6 11 6 22 0 28 -5 5 -6 27 -1 51 4 23 4 47 -1 52 -11 15
-18 75 -8 75 4 0 8 11 8 23 0 21 7 37 17 37 2 0 3 -74 3 -165z m197 2 l3 -157
-28 0 c-20 0 -23 3 -13 9 15 10 18 130 5 198 -4 18 -3 41 1 50 5 10 7 29 6 42
-2 16 2 22 11 19 10 -4 14 -41 15 -161z m-3157 114 c0 -22 -4 -29 -17 -26 -10
1 -16 9 -14 16 2 8 4 20 4 27 1 27 27 11 27 -17z m187 23 c-3 -3 -12 -4 -19
-1 -8 3 -5 6 6 6 11 1 17 -2 13 -5z m305 -54 c5 0 8 7 4 15 -3 8 -2 23 2 33
12 30 17 -32 14 -164 l-3 -124 -31 0 c-26 0 -29 2 -18 15 8 10 11 31 6 61 -8
63 2 124 20 117 8 -3 14 0 14 6 0 6 -7 11 -15 11 -11 0 -15 11 -13 48 1 36 2
39 5 15 2 -18 9 -33 15 -33z m1154 40 c9 0 14 -11 14 -35 0 -24 -5 -35 -15
-35 -8 0 -15 -5 -15 -11 0 -6 7 -9 15 -5 17 6 18 -2 19 -121 1 -68 0 -73 -20
-73 -20 0 -22 6 -26 132 -5 122 0 190 10 160 2 -6 10 -12 18 -12z m664 -34 c0
-49 -2 -55 -20 -53 -16 1 -20 8 -20 34 0 21 6 36 16 40 8 3 13 12 10 19 -3 8
-1 14 4 14 6 0 10 -24 10 -54z m769 22 c0 13 5 20 11 17 15 -9 2 -277 -13
-287 -19 -12 -39 -9 -31 4 4 7 8 50 9 97 1 54 6 86 14 89 6 2 11 8 11 13 0 6
-4 7 -10 4 -6 -4 -10 14 -9 47 1 45 3 49 9 23 6 -25 8 -26 9 -7z m1111 -53 c0
-33 -3 -77 -6 -97 l-7 -38 -18 35 c-23 43 -24 106 -3 152 22 45 34 27 34 -52z
m-4376 60 c4 -10 -1 -15 -14 -15 -20 0 -26 11 -13 23 10 11 20 8 27 -8z m114
-45 c-2 -33 -1 -60 2 -60 3 0 6 -20 7 -45 2 -34 -1 -45 -12 -45 -12 0 -15 19
-15 105 0 64 4 105 10 105 6 0 9 -24 8 -60z m791 7 c4 -4 6 6 3 23 -3 19 0 30
8 30 8 0 11 -38 9 -142 -1 -79 -4 -146 -6 -149 -1 -4 -14 -4 -28 -2 -14 3 -22
10 -18 16 3 5 6 41 5 79 -1 58 1 68 16 68 16 1 16 1 -1 11 -9 6 -15 15 -12 20
4 5 11 7 16 4 5 -4 9 -1 9 4 0 6 -7 11 -16 11 -11 0 -14 5 -10 16 3 9 7 28 7
42 l2 27 4 -25 c3 -14 8 -29 12 -33z m3140 -80 c0 -117 -8 -164 -24 -138 -4 7
-9 30 -11 52 -4 32 -2 39 13 40 16 1 16 2 1 6 -13 3 -15 10 -9 26 4 12 6 45 4
72 -3 56 2 79 16 70 6 -3 10 -61 10 -128z m-4002 111 c-2 -7 0 -21 5 -31 13
-25 1 -77 -13 -56 -10 16 -12 83 -2 92 10 11 15 8 10 -5z m978 -8 c14 -22 13
-53 0 -67 -18 -17 -20 -90 -4 -95 7 -2 9 -13 5 -26 -16 -50 -26 -16 -26 88 0
100 7 129 25 100z m1377 -60 c5 0 8 7 5 15 -4 8 -2 17 2 20 13 7 22 -37 10
-51 -7 -8 -7 -14 1 -19 13 -8 13 -85 0 -105 -9 -13 -11 -13 -20 0 -5 8 -10 23
-10 32 0 11 -7 16 -20 15 -16 -1 -20 -9 -21 -37 -1 -31 -2 -32 -8 -10 -9 32 1
181 11 158 12 -30 28 -20 30 20 l1 37 4 -37 c2 -21 9 -38 15 -38z m580 -20 c1
-49 2 -97 2 -107 1 -25 -21 -27 -29 -1 -5 13 -3 24 4 26 14 5 14 62 0 62 -8 0
-8 4 0 14 9 10 8 15 -4 20 -18 7 -20 41 -2 61 23 26 27 15 29 -75z m916 40 c2
-28 -1 -50 -6 -50 -11 0 -21 56 -14 82 8 33 17 19 20 -32z m-3964 -3 c8 -6 8
-10 -1 -13 -7 -3 -9 -12 -6 -20 3 -8 0 -14 -6 -14 -7 0 -11 19 -10 48 1 26 4
38 6 27 3 -11 10 -24 17 -28z m355 -59 c-2 -82 -3 -92 -8 -51 -4 28 -10 55
-15 60 -5 5 -6 0 -3 -10 4 -11 1 -20 -8 -23 -10 -4 -13 -15 -11 -31 3 -16 1
-23 -7 -20 -7 2 -15 26 -18 53 -4 38 -1 56 14 81 21 36 33 43 23 16 -4 -12 0
-10 10 5 9 12 18 22 20 22 2 0 3 -46 3 -102z m1071 98 c0 -3 -4 -8 -10 -11 -5
-3 -10 -1 -10 4 0 6 5 11 10 11 6 0 10 -2 10 -4z m2870 -6 c0 -5 -2 -10 -4
-10 -3 0 -8 5 -11 10 -3 6 -1 10 4 10 6 0 11 -4 11 -10z m-1528 -29 c3 -24 1
-29 -14 -28 -10 1 -16 6 -13 12 3 5 8 18 11 28 9 23 11 22 16 -12z m-1426 -39
c-2 -26 0 -55 5 -64 7 -13 6 -18 -3 -18 -10 0 -10 -2 0 -9 9 -6 11 -19 7 -45
-8 -38 -19 -46 -29 -21 -3 8 0 15 7 15 9 0 8 3 -1 9 -13 8 -16 130 -4 173 9
35 22 5 18 -40z m-300 -29 c4 -38 1 -53 -15 -73 l-21 -25 0 88 c0 80 2 87 15
73 9 -9 18 -37 21 -63z m1594 -27 c0 -94 -9 -131 -27 -113 -8 8 -11 117 -3
117 4 0 5 23 3 50 -2 39 0 50 12 50 12 0 15 -18 15 -104z m313 -17 l3 -104 37
-1 c21 -1 40 -4 44 -8 3 -3 -73 -6 -170 -6 l-176 0 3 71 c1 38 -1 72 -6 75
-11 7 -10 44 2 44 5 0 7 6 4 14 -3 8 -1 17 5 21 8 4 11 -29 11 -104 0 -130 18
-152 22 -28 3 76 5 82 26 85 21 3 22 1 22 -83 0 -65 3 -86 13 -82 8 2 11 20 9
51 -2 33 1 48 11 52 15 5 17 27 4 40 -4 4 -7 12 -7 18 0 6 5 4 11 -4 9 -12 10
-11 6 7 -3 13 -1 26 4 29 6 3 9 -33 7 -93 -3 -84 -1 -98 13 -101 21 -4 28 26
22 93 -3 28 -4 59 -4 70 0 11 1 28 2 38 0 9 4 17 10 17 5 0 9 -26 10 -57 3
-141 4 -156 17 -160 9 -4 12 16 13 74 1 43 2 83 4 88 1 6 3 23 3 40 2 20 5 26
12 19 6 -6 12 -57 13 -115z m192 91 c7 0 16 8 18 18 3 9 5 -28 5 -83 0 -71 -2
-88 -7 -58 -7 44 -21 70 -21 40 0 -9 -7 -17 -15 -17 -10 0 -15 -10 -15 -30 0
-31 -14 -41 -23 -16 -13 34 -19 106 -8 106 6 0 11 6 11 14 0 8 7 16 15 20 8 3
16 13 16 23 1 17 2 17 6 1 2 -10 11 -18 18 -18z m-2892 14 c-7 -3 -10 -11 -7
-19 3 -7 1 -16 -5 -20 -7 -4 -11 4 -11 19 0 18 5 26 18 25 9 0 12 -3 5 -5z
m1184 0 c-3 -3 -12 -4 -19 -1 -8 3 -5 6 6 6 11 1 17 -2 13 -5z m70 0 c-3 -3
-12 -4 -19 -1 -8 3 -5 6 6 6 11 1 17 -2 13 -5z m1061 -59 c2 -27 1 -28 -21
-19 -9 3 -13 13 -10 25 8 27 28 24 31 -6z m-2787 1 c14 8 10 -30 -5 -52 -14
-18 -15 -18 -21 8 -8 29 3 74 12 50 3 -6 9 -10 14 -6z m4185 -43 c0 -27 -6
-48 -13 -50 -9 -3 -11 9 -9 44 5 57 4 53 15 53 5 0 8 -21 7 -47z m-2459 5 c-3
-7 -5 -2 -5 12 0 14 2 19 5 13 2 -7 2 -19 0 -25z m2869 -45 c-8 -20 -23 -9
-29 22 -3 16 2 32 12 42 15 16 16 14 19 -16 2 -18 1 -40 -2 -48z m-4116 42 c0
-8 -7 -15 -15 -15 -8 0 -15 7 -15 15 0 8 7 15 15 15 8 0 15 -7 15 -15z m2310
-35 c0 -13 -5 -17 -20 -13 -22 6 -22 6 -14 27 7 20 34 9 34 -14z m1625 10 c3
-5 -1 -10 -9 -10 -9 0 -16 5 -16 10 0 6 4 10 9 10 6 0 13 -4 16 -10z m105 6
c0 -2 -7 -6 -15 -10 -8 -3 -15 -1 -15 4 0 6 7 10 15 10 8 0 15 -2 15 -4z
m-2860 -46 c0 -22 -4 -40 -9 -40 -4 0 -6 11 -3 25 5 28 -14 35 -21 8 -3 -12
-5 -8 -6 9 -1 17 5 28 17 31 9 3 18 5 20 6 1 0 2 -17 2 -39z m-1240 6 c0 -8
-4 -18 -10 -21 -5 -3 -10 -4 -10 -1 0 2 -3 11 -6 20 -4 11 -1 16 10 16 9 0 16
-6 16 -14z m3762 -22 c-7 -12 -11 -13 -17 -4 -4 7 -2 16 6 21 18 11 23 4 11
-17z m-3716 -13 c-12 -19 -24 -12 -19 10 4 13 9 17 15 11 6 -6 7 -15 4 -21z
m2325 -4 c6 -21 4 -27 -8 -27 -11 0 -14 7 -9 24 3 13 1 27 -4 29 -6 3 -5 4 2
3 6 -1 15 -14 19 -29z m569 -20 c8 -3 -10 -6 -40 -6 l-55 0 35 12 c19 7 37 10
40 6 3 -3 12 -9 20 -12z m-2110 3 c0 -5 -4 -10 -10 -10 -5 0 -10 5 -10 10 0 6
5 10 10 10 6 0 10 -4 10 -10z m267 -3 c3 -4 -39 -7 -95 -7 -56 0 -102 3 -102
8 0 9 187 8 197 -1z m1193 3 c0 -5 -4 -10 -10 -10 -5 0 -10 5 -10 10 0 6 5 10
10 10 6 0 10 -4 10 -10z m-33 -6 c-3 -3 -12 -4 -19 -1 -8 3 -5 6 6 6 11 1 17
-2 13 -5z m70 0 c-3 -3 -12 -4 -19 -1 -8 3 -5 6 6 6 11 1 17 -2 13 -5z m-2966
-54 c5 0 9 -85 9 -200 0 -184 -1 -200 -17 -200 -10 0 -28 -3 -40 -6 l-22 -6 6
189 c6 199 13 239 39 229 9 -3 20 -6 25 -6z m764 -157 l7 -153 -22 0 c-20 0
-22 4 -17 34 3 19 3 37 -1 41 -5 5 -5 34 2 110 1 11 -1 30 -6 42 -4 13 -3 25
2 28 6 4 10 20 10 38 0 18 4 27 9 22 5 -6 12 -79 16 -162z m159 10 c7 -139 6
-143 -14 -143 -11 0 -20 5 -20 10 0 6 6 10 13 10 8 0 8 3 1 8 -6 4 -10 47 -9
107 1 144 4 170 14 160 5 -6 12 -74 15 -152z m260 101 c3 -26 6 -91 6 -145 l0
-99 -30 0 -30 0 0 89 c0 50 5 93 10 96 7 4 7 12 0 25 -7 13 -5 21 6 31 8 7 13
18 10 25 -5 12 2 24 14 24 4 0 10 -21 14 -46z m258 0 c4 -21 7 -85 7 -141 l1
-103 -57 0 -58 0 -3 85 c-1 47 2 85 7 85 13 0 20 49 7 54 -6 2 -3 5 7 5 14 1
17 -9 19 -61 0 -35 2 -67 3 -73 2 -5 4 -26 5 -45 2 -19 6 11 10 66 9 131 18
176 33 171 7 -2 15 -21 19 -43z m682 24 c3 -13 9 -75 13 -138 7 -105 8 -110
14 -60 4 30 7 78 8 106 1 34 5 51 14 51 9 0 12 -10 9 -29 -3 -17 0 -28 7 -28
8 0 11 -26 9 -85 l-3 -85 -59 0 -58 0 4 133 c2 72 7 138 11 145 12 18 24 15
31 -10z m114 -25 c1 -21 6 -39 12 -41 16 -6 11 -49 -7 -56 -12 -5 -14 -9 -5
-18 15 -15 16 -55 2 -63 -8 -5 -8 -11 0 -20 11 -13 4 -45 -11 -45 -7 0 -11 64
-11 175 0 76 3 115 10 111 5 -3 9 -22 10 -43z m134 23 c-2 -9 2 -16 9 -16 7 0
10 -11 7 -30 -3 -17 -1 -33 4 -36 4 -3 8 -45 8 -95 l0 -89 -31 0 -30 0 2 126
c1 69 4 134 6 145 7 24 29 19 25 -5z m346 -2 c4 2 8 -12 10 -32 1 -20 -3 -39
-10 -44 -8 -5 -9 -8 -2 -8 7 0 10 -17 9 -42 -2 -24 2 -46 9 -51 8 -5 6 -12 -7
-21 -12 -9 -14 -16 -8 -21 6 -3 11 -15 11 -26 0 -14 -7 -19 -26 -19 l-26 0 7
138 c7 129 15 179 23 139 2 -9 7 -15 10 -13z m90 1 c2 -16 1 -17 -7 -5 -5 8
-14 11 -18 6 -4 -4 0 -13 10 -20 14 -11 17 -30 17 -130 l0 -116 -30 0 -30 0 0
63 c0 34 3 99 7 145 6 77 8 83 27 80 12 -2 22 -12 24 -23z m887 15 c4 -6 -5
-10 -20 -10 -15 0 -24 4 -20 10 3 6 12 10 20 10 8 0 17 -4 20 -10z m70 -52 c2
-29 7 -92 11 -140 l7 -88 -32 0 c-29 0 -32 2 -25 23 4 12 12 25 18 29 7 4 4 9
-7 14 -9 3 -17 13 -17 21 0 8 5 11 10 8 14 -9 12 19 -2 33 -10 10 -10 15 2 22
13 9 13 11 0 20 -10 6 -11 10 -2 10 6 0 12 7 12 16 0 8 -4 12 -10 9 -5 -3 -10
-2 -10 4 0 5 4 12 9 16 5 3 12 19 16 36 9 42 16 30 20 -33z m85 -73 c0 -74 1
-138 3 -142 1 -5 -13 -9 -32 -11 l-34 -3 8 93 c3 51 11 95 16 96 12 5 12 32
-1 32 -15 0 -12 16 6 34 8 9 12 20 9 26 -3 5 1 10 9 10 14 0 16 -19 16 -135z
m226 -19 l2 -148 -31 6 c-17 3 -33 8 -35 11 -7 7 -9 228 -2 255 5 19 9 6 17
-50 l10 -75 3 60 c2 33 4 65 5 70 2 6 3 14 4 18 0 5 6 7 13 5 9 -3 13 -47 14
-152z m187 148 c12 -4 15 -32 16 -152 1 -80 4 -148 6 -151 3 -2 5 34 5 80 1
99 8 159 22 176 6 7 8 20 4 28 -3 8 -1 15 4 15 10 0 11 -12 15 -213 l3 -108
-62 6 c-103 10 -96 -1 -90 138 3 67 6 134 7 150 4 49 15 28 22 -40 10 -108 12
-113 15 -30 1 42 4 82 5 87 1 6 3 12 4 15 1 6 6 6 24 -1z m-3147 -141 c-1
-107 -4 -137 -15 -141 -11 -4 -13 2 -8 26 4 17 3 33 -1 36 -4 2 -6 44 -4 93 1
48 2 96 3 106 0 9 6 17 13 17 10 0 12 -32 12 -137z m194 -3 c0 -122 -2 -140
-16 -140 -13 0 -15 7 -10 35 4 20 3 35 -3 35 -10 0 -3 39 11 56 5 7 3 14 -7
18 -17 6 -21 56 -4 56 6 0 9 9 6 20 -3 11 -1 22 4 25 4 3 6 12 2 20 -3 8 0 15
6 15 7 0 11 -44 11 -140z m2860 -10 c0 -117 -3 -150 -13 -150 -9 0 -13 20 -14
73 0 39 -2 86 -3 102 -2 28 -3 27 -11 -10 -4 -22 -8 -68 -8 -103 -1 -46 -4
-63 -13 -60 -9 3 -14 40 -16 128 -3 140 1 163 23 134 8 -10 15 -27 15 -37 0
-10 4 -16 9 -13 5 3 8 24 6 46 -2 29 1 40 11 40 11 0 14 -29 14 -150z m773 89
c4 -30 11 -108 16 -174 l8 -120 1 91 c1 50 5 112 8 136 6 43 7 45 24 29 9 -9
15 -26 13 -38 -2 -13 1 -23 6 -23 5 0 9 -53 9 -118 l0 -118 -62 4 c-97 6 -90
-10 -82 184 4 94 11 180 17 190 17 32 34 15 42 -43z m-3968 10 c7 -32 3 -42
-20 -45 -17 -3 -18 1 -9 45 8 39 20 40 29 0z m2695 19 c0 6 7 12 15 12 12 0
15 -14 15 -62 0 -35 3 -93 6 -130 l7 -68 -32 0 -31 0 0 133 c0 89 3 127 10
117 6 -10 10 -11 10 -2z m-2428 -95 c-1 -150 -1 -153 -17 -153 -12 0 -15 20
-15 118 0 65 3 122 7 126 16 16 26 -19 25 -91z m1206 -31 c3 -105 1 -122 -12
-122 -9 0 -16 6 -17 13 0 6 -3 30 -5 52 -8 61 6 187 19 182 8 -2 13 -44 15
-125z m207 91 c7 -29 7 -30 -20 -35 -15 -2 -21 3 -23 20 -8 53 30 66 43 15z
m579 6 c3 -17 6 -74 6 -125 0 -75 -3 -94 -14 -94 -17 0 -23 54 -18 173 4 80
15 100 26 46z m1602 -19 c9 0 15 -12 16 -37 0 -21 2 -49 4 -63 1 -14 6 -65 10
-113 l7 -88 -84 5 c-55 3 -79 2 -69 -4 8 -5 24 -10 34 -10 11 0 17 -3 13 -6
-3 -3 -24 -3 -46 1 -28 5 -38 11 -35 20 4 10 -5 15 -33 17 l-38 3 1 75 c2 147
3 160 19 160 9 0 15 -10 16 -27 3 -91 10 -198 14 -202 3 -2 5 48 5 112 0 97 3
117 15 117 8 0 15 -8 16 -17 0 -10 3 -37 5 -60 3 -26 1 -43 -5 -43 -7 0 -7 -8
-1 -25 5 -14 8 -38 6 -55 -2 -18 2 -31 10 -34 15 -6 18 19 14 157 -2 76 -2 77
24 77 18 0 24 -4 20 -15 -4 -8 -10 -15 -15 -15 -5 0 -9 -4 -9 -10 0 -6 6 -9
13 -8 9 2 13 -21 15 -87 1 -49 5 -97 8 -105 14 -39 24 27 25 175 1 88 4 148 6
133 2 -16 11 -28 19 -28z m-4145 -44 c1 -45 1 -100 -1 -123 -1 -27 2 -43 10
-43 6 0 8 -4 5 -10 -3 -5 -15 -10 -26 -10 -18 0 -19 8 -19 133 0 112 2 134 15
134 12 0 15 -17 16 -81z m167 27 c1 -32 3 -88 5 -125 3 -50 1 -68 -8 -68 -7 0
-15 10 -17 23 -8 34 -9 207 -3 217 14 22 21 7 23 -47z m1461 -52 c-1 -60 1
-114 5 -120 5 -7 -2 -11 -17 -11 -23 0 -24 3 -31 105 -7 105 -3 131 15 120 5
-4 9 -1 9 4 0 6 4 11 10 11 6 0 9 -43 9 -109z m-800 -38 c1 -93 1 -93 -24 -93
-22 0 -25 4 -25 38 0 48 18 171 27 186 12 19 21 -34 22 -131z m521 112 c-9
-11 -9 -19 -2 -28 6 -7 11 -22 11 -32 -1 -11 2 -48 6 -82 l8 -63 -27 0 -26 0
0 103 c0 106 3 117 28 117 12 0 12 -3 2 -15z m1360 -101 c5 -94 3 -104 -12
-104 -16 0 -18 11 -18 94 0 164 22 171 30 10z m990 101 c0 -8 -7 -15 -15 -15
-8 0 -15 7 -15 15 0 8 7 15 15 15 8 0 15 -7 15 -15z m-2589 -40 c1 -16 1 -60
1 -97 -2 -52 -5 -68 -16 -68 -12 0 -14 18 -12 93 2 50 4 99 5 107 2 24 19 -3
22 -35z m2961 13 c-10 -10 -15 -10 -22 2 -6 9 -5 17 3 22 18 11 33 -10 19 -24z
m-4692 13 c0 -6 -4 -13 -10 -16 -5 -3 -10 1 -10 9 0 9 5 16 10 16 6 0 10 -4
10 -9z m1520 -11 c0 -5 -9 -6 -20 -3 -11 3 -17 9 -15 14 7 10 35 1 35 -11z
m380 10 c0 -5 -4 -10 -10 -10 -5 0 -10 5 -10 10 0 6 5 10 10 10 6 0 10 -4 10
-10z m-220 -101 c0 -49 -4 -89 -10 -89 -5 0 -8 19 -7 43 0 23 -2 48 -6 54 -5
7 -4 28 2 47 5 19 6 38 3 42 -4 4 -1 4 6 0 8 -5 12 -36 12 -97z m111 69 c0
-18 1 -61 2 -96 2 -59 1 -62 -21 -62 -22 0 -23 3 -21 61 2 42 7 63 17 66 11 5
11 7 1 14 -10 6 -10 11 -1 22 7 7 9 17 5 20 -3 4 -1 7 5 7 7 0 12 -15 13 -32z
m53 -80 c1 -63 -2 -78 -14 -78 -11 0 -15 10 -14 38 5 159 4 158 16 138 6 -11
11 -55 12 -98z m1042 13 c3 -68 1 -91 -9 -91 -9 0 -11 24 -9 96 2 53 6 94 9
91 2 -3 7 -46 9 -96z m334 90 c0 -5 3 -16 6 -25 4 -12 0 -16 -15 -16 -12 0
-21 6 -21 15 0 8 5 15 11 15 5 0 7 5 4 10 -3 6 -1 10 4 10 6 0 11 -4 11 -9z
m59 -113 c-1 -45 -6 -68 -14 -68 -7 0 -12 19 -12 53 0 28 -2 57 -4 62 -2 6 0
26 5 45 l8 35 9 -30 c5 -16 9 -60 8 -97z m110 10 c1 -68 -1 -78 -16 -78 -16 0
-18 10 -15 82 1 46 5 90 8 98 11 28 23 -22 23 -102z m60 17 l2 -95 -27 0 -27
0 6 82 c3 46 10 84 16 86 6 2 9 8 5 13 -3 5 1 9 9 9 11 0 15 -20 16 -95z m45
70 c4 -14 6 -56 5 -95 -1 -52 -5 -70 -15 -70 -11 0 -13 12 -10 50 2 28 -1 50
-5 50 -5 0 -9 9 -9 20 0 11 5 20 10 20 6 0 8 11 6 25 -6 33 10 33 18 0z
m-3130 -7 c9 -34 7 -50 -4 -43 -5 3 -10 1 -10 -4 0 -6 7 -11 15 -11 12 0 15
-16 15 -80 0 -73 -2 -80 -20 -80 -19 0 -20 7 -20 120 0 112 9 151 24 98z m101
-28 c-3 -5 -1 -11 5 -15 6 -4 8 -11 4 -16 -3 -6 -6 -42 -7 -80 0 -38 -4 -69
-9 -69 -4 0 -8 53 -7 118 0 83 3 110 10 94 5 -13 7 -28 4 -32z m55 -35 c3
-112 1 -135 -14 -135 -10 0 -13 11 -11 38 1 20 3 71 4 112 2 89 19 77 21 -15z
m1110 -17 c0 -63 -3 -78 -15 -78 -16 0 -18 20 -15 115 4 106 30 74 30 -37z
m2694 80 c3 -13 6 -63 6 -112 0 -49 2 -87 4 -85 3 2 7 49 10 103 3 54 8 101
11 104 13 14 20 -17 26 -111 l6 -102 1 108 c2 86 5 107 17 107 9 0 16 -14 20
-37 4 -21 8 -42 10 -48 4 -11 8 52 6 73 -2 10 2 11 18 2 19 -10 21 -20 21
-117 0 -58 2 -104 5 -102 2 3 6 53 7 112 2 71 7 107 14 107 7 0 14 -9 17 -20
6 -25 3 -208 -4 -215 -3 -2 -22 0 -42 6 -33 9 -36 13 -35 44 1 19 -2 38 -5 42
-4 3 -7 -13 -7 -36 l0 -42 -67 7 c-38 3 -71 8 -74 9 -3 2 -5 28 -4 57 1 29 2
79 3 111 2 41 6 57 16 57 7 0 16 -10 20 -22z m-4259 -26 c-1 -18 3 -32 7 -32
11 0 10 -58 -1 -65 -6 -3 -6 -17 -1 -35 5 -17 5 -32 0 -35 -5 -3 -5 -16 0 -30
5 -14 8 -25 6 -25 -3 0 -12 -3 -21 -6 -14 -6 -16 7 -14 130 1 95 5 136 13 133
6 -2 11 -18 11 -35z m71 11 c5 -16 11 -74 13 -130 l3 -103 -29 0 -28 0 3 130
c2 94 6 130 15 130 7 0 17 -12 23 -27z m172 20 c-1 -5 1 -24 5 -43 4 -19 3
-60 -2 -90 -5 -30 -5 -64 -1 -76 9 -23 16 -21 -123 -39 l-27 -4 6 112 c3 62 6
118 6 125 2 17 15 15 22 -4 3 -9 6 -60 6 -115 0 -81 3 -99 15 -99 13 0 14 15
9 93 -5 78 -3 95 10 106 13 11 17 11 21 -1 3 -8 5 -19 4 -24 -1 -5 -1 -44 0
-86 1 -62 4 -78 16 -78 12 0 15 19 15 115 0 70 4 115 10 115 6 0 9 -3 8 -7z
m1264 -10 c7 -29 -4 -153 -13 -153 -5 0 -7 23 -5 50 2 28 -1 50 -5 50 -5 0 -9
9 -9 20 0 11 4 20 10 20 5 0 7 7 4 15 -4 8 -2 15 4 15 5 0 12 -8 14 -17z
m1274 -7 c7 -14 8 -30 3 -38 -5 -7 -9 -34 -9 -60 0 -27 -4 -48 -10 -48 -6 0
-10 35 -10 85 0 87 7 103 26 61z m160 -62 c-3 -70 -15 -116 -17 -63 -1 37 -5
83 -8 94 -2 6 0 20 4 32 14 43 25 11 21 -63z m54 -5 c0 -64 -3 -79 -15 -79
-13 0 -15 14 -14 78 2 82 5 96 20 87 5 -4 9 -42 9 -86z m50 4 c0 -87 -12 -109
-17 -30 -1 23 -3 49 -4 57 -4 31 1 60 11 60 6 0 10 -36 10 -87z m-3117 64 c3
-8 1 -20 -4 -28 -6 -10 -9 -7 -9 14 0 29 5 35 13 14z m571 -84 c-2 -26 -3 -61
-4 -77 0 -16 -3 -27 -6 -24 -8 9 -14 179 -7 192 11 17 21 -38 17 -91z m2211
-30 c-15 -49 -18 -32 -9 49 8 71 8 72 14 28 3 -25 1 -59 -5 -77z m-2351 8 c1
-66 -1 -92 -11 -95 -18 -7 -19 -1 -22 93 -2 60 1 86 10 92 8 4 15 6 17 4 2 -1
4 -44 6 -94z m3127 -1 c-8 -25 -17 29 -12 69 l5 36 6 -45 c3 -25 3 -52 1 -60z
m-2802 -10 l1 -25 -13 25 c-7 13 -10 42 -8 65 l5 40 7 -40 c4 -22 8 -51 8 -65z
m2481 35 c0 -63 -1 -65 -25 -65 -25 0 -25 1 -21 63 3 34 5 63 5 65 1 1 10 2
21 2 18 0 20 -7 20 -65z m-1346 41 c-3 -8 3 -23 15 -32 19 -17 20 -41 0 -29
-5 4 -9 -5 -9 -19 0 -14 -4 -26 -9 -26 -5 0 -8 27 -8 60 1 33 5 60 9 60 4 0 5
-6 2 -14z m-1894 -131 c-3 -11 -6 -32 -5 -47 1 -17 -4 -28 -12 -28 -7 0 -10 6
-8 13 2 6 6 46 9 87 7 101 8 103 16 45 4 -27 4 -59 0 -70z m957 93 c-3 -8 -6
-5 -6 6 -1 11 2 17 5 13 3 -3 4 -12 1 -19z m562 -30 c-2 -32 -3 -36 -6 -15 -3
20 -9 27 -19 23 -8 -3 -14 1 -14 9 0 7 8 16 18 18 9 3 18 5 20 6 1 0 1 -18 1
-41z m978 20 c-3 -8 -6 -5 -6 6 -1 11 2 17 5 13 3 -3 4 -12 1 -19z m458 -23
c0 -19 -3 -35 -7 -35 -4 0 -8 19 -8 42 0 49 13 44 15 -7z m892 23 c-3 -8 -6
-5 -6 6 -1 11 2 17 5 13 3 -3 4 -12 1 -19z m-930 -40 c-2 -13 -4 -5 -4 17 -1
22 1 32 4 23 2 -10 2 -28 0 -40z m-334 2 c7 0 6 -4 -3 -9 -20 -14 -29 -5 -22
22 5 18 7 19 10 5 2 -10 9 -18 15 -18z m-1663 6 c0 -3 -4 -8 -10 -11 -5 -3
-10 -1 -10 4 0 6 5 11 10 11 6 0 10 -2 10 -4z m2645 -16 c3 -5 1 -10 -4 -10
-6 0 -11 5 -11 10 0 6 2 10 4 10 3 0 8 -4 11 -10z m-2645 -134 c0 -14 5 -28
10 -31 6 -4 10 7 10 24 0 17 5 31 10 31 6 0 10 -70 10 -190 l0 -190 -26 -10
c-14 -6 -30 -10 -35 -10 -10 0 -13 383 -2 393 13 14 23 6 23 -17z m1602 -3 c4
-39 28 -42 28 -4 0 24 4 31 19 31 16 0 19 -11 25 -92 3 -50 6 -133 6 -185 l0
-93 -49 0 -49 0 -5 48 c-7 64 -8 163 -1 250 6 71 20 97 26 45z m179 20 c6 -46
11 -120 15 -230 l6 -133 -26 0 -26 0 0 185 c0 158 2 185 15 185 8 0 15 -3 16
-7z m969 -178 l0 -185 -25 0 c-23 0 -25 4 -26 48 -1 46 -1 46 -9 13 -5 -19 -6
-40 -3 -46 6 -17 -28 -29 -39 -13 -13 21 -2 312 13 339 13 22 14 19 17 -46 1
-38 5 -77 9 -85 8 -20 25 53 23 103 -1 44 5 57 26 57 12 0 14 -31 14 -185z
m120 3 c0 -100 2 -179 4 -177 3 2 6 72 8 156 1 83 6 149 10 147 5 -3 8 9 8 27
0 22 3 30 10 23 8 -8 15 -194 11 -326 l-1 -38 -50 0 -50 0 0 139 c0 181 7 231
31 231 18 0 19 -11 19 -182z m-2290 161 c0 -5 4 -8 9 -5 5 3 11 -4 14 -16 6
-23 0 -329 -7 -336 -3 -2 -13 1 -23 7 -10 6 -13 11 -6 11 6 0 9 9 6 20 -3 12
0 20 7 20 9 0 9 5 -3 18 -18 20 -19 32 -5 50 7 8 7 12 -1 12 -8 0 -11 35 -9
115 1 63 5 115 10 115 4 0 8 -5 8 -11z m1260 -14 c5 -14 10 -80 10 -147 2
-199 3 -194 -20 -194 -19 0 -20 7 -20 167 0 191 7 234 30 174z m303 7 c2 -11
3 -75 1 -143 -2 -68 -3 -141 -3 -161 -1 -29 -5 -38 -18 -38 -16 0 -18 12 -16
133 1 72 4 146 6 162 3 17 5 38 6 48 1 23 17 22 24 -1z m246 -144 c-1 -174 -5
-203 -29 -203 -19 0 -24 76 -15 243 6 111 9 122 26 122 18 0 19 -9 18 -162z
m671 8 c0 -145 -1 -154 -20 -159 -19 -5 -20 0 -20 154 0 152 1 159 20 159 19
0 20 -7 20 -154z m-3138 -55 l3 -199 -36 -11 c-20 -6 -39 -11 -43 -11 -8 0 -8
337 0 368 13 45 24 20 25 -55 1 -69 2 -73 10 -38 4 22 8 64 8 93 1 39 5 52 16
52 12 0 15 -33 17 -199z m1088 179 c0 -11 -6 -20 -12 -21 -10 0 -10 -2 0 -6 8
-3 12 -32 12 -93 0 -83 -1 -88 -20 -83 -18 5 -20 14 -20 102 0 62 4 101 12
109 18 18 28 15 28 -8z m1250 -130 c2 -199 2 -208 -10 -190 -9 13 -10 13 -11
0 0 -8 -4 -3 -9 13 -18 60 4 347 25 326 2 -3 5 -70 5 -149z m60 -27 l0 -176
-21 24 c-20 22 -21 33 -17 149 4 111 17 180 33 180 3 0 5 -79 5 -177z m-2552
106 c2 -24 5 -107 8 -184 2 -77 6 -150 8 -162 3 -19 -11 -33 -32 -33 -4 0 -9
97 -11 216 -2 179 -1 216 10 212 8 -3 15 -23 17 -49z m673 -262 c-22 -22 -29
8 -26 125 2 117 5 134 23 176 4 9 8 -52 10 -137 1 -87 -2 -159 -7 -164z m698
276 c5 -21 12 -95 15 -165 6 -123 6 -126 -14 -121 -19 5 -20 14 -20 164 0 88
2 159 5 159 2 0 9 -17 14 -37z m1972 -40 c2 -77 1 -134 -1 -203 0 -29 -2 -32
-11 -17 -18 31 -15 297 4 297 4 0 8 -35 8 -77z m-1033 -80 c-2 -88 -7 -138
-14 -140 -7 -2 -11 21 -12 67 -1 54 1 69 11 64 9 -6 9 -4 1 7 -16 20 -17 95
-2 119 7 11 14 20 16 20 2 0 2 -62 0 -137z m1318 123 c11 -11 14 -45 14 -140
0 -69 -2 -126 -4 -126 -2 0 -11 3 -20 6 -14 5 -16 27 -16 140 0 74 3 134 6
134 3 0 12 -6 20 -14z m-3771 -83 c4 -43 8 -140 9 -215 3 -121 1 -137 -14
-141 -15 -4 -18 7 -24 71 -8 97 -8 357 0 365 14 14 21 -6 29 -80z m754 24 c4
-4 6 6 3 23 -3 20 0 30 8 30 10 0 11 -34 8 -145 -3 -80 -8 -148 -10 -151 -3
-2 -11 -2 -19 1 -21 8 -20 152 1 165 13 9 13 10 0 10 -12 0 -14 12 -11 67 3
38 7 55 9 38 2 -16 7 -34 11 -38z m3097 -77 c-3 -52 -5 -107 -5 -122 -1 -21
-5 -26 -18 -22 -17 5 -17 5 0 -6 9 -6 17 -22 17 -36 0 -21 -3 -23 -17 -15 -16
8 -18 28 -20 153 -2 79 0 154 3 168 l6 25 19 -25 c17 -22 19 -37 15 -120z
m-2946 -1 c0 -116 -2 -130 -15 -119 -12 10 -15 9 -15 -5 0 -10 -3 -15 -7 -12
-3 4 -8 65 -10 137 l-3 130 25 0 25 0 0 -131z m555 -1 c-3 -72 -7 -134 -10
-136 -3 -3 -5 3 -5 13 0 14 -3 15 -15 5 -13 -11 -15 3 -15 119 l0 131 26 0 25
0 -6 -132z m125 75 c0 -18 -3 -32 -7 -30 -5 1 -9 -2 -10 -8 -2 -5 1 -10 6 -10
5 0 13 -3 17 -7 4 -5 0 -8 -9 -8 -9 0 -18 -4 -21 -9 -3 -5 2 -8 12 -7 14 1 17
-7 16 -42 0 -26 -7 -48 -15 -53 -11 -7 -10 -9 6 -9 14 0 16 -3 7 -12 -8 -8 -9
-15 -1 -25 11 -13 10 -14 -13 -17 -22 -2 -27 25 -27 162 -1 130 -1 132 19 120
13 -9 20 -24 20 -45z m505 47 c3 -5 1 -10 -4 -10 -6 0 -11 5 -11 10 0 6 2 10
4 10 3 0 8 -4 11 -10z m244 -94 c1 -66 -2 -112 -9 -126 -16 -29 -21 -21 -27
42 -5 51 14 188 26 188 4 0 8 -47 10 -104z m-2289 84 c0 -5 -4 -10 -10 -10 -5
0 -10 5 -10 10 0 6 5 10 10 10 6 0 10 -4 10 -10z m501 -17 c9 -164 3 -230 -17
-210 -4 4 -9 26 -11 50 -1 23 -7 67 -12 97 -7 44 -6 58 7 73 22 24 32 21 33
-10z m59 -41 c3 -34 3 -90 0 -124 l-5 -63 -19 48 c-15 37 -17 59 -11 105 4 31
8 67 9 80 3 46 21 13 26 -46z m1140 9 c14 -66 7 -143 -16 -175 -13 -20 -14
-19 -15 9 0 17 -2 39 -5 50 -6 29 7 175 16 175 4 0 13 -27 20 -59z m60 40 c15
-29 12 -103 -5 -128 -10 -14 -11 -23 -4 -25 6 -2 8 -14 4 -31 -21 -80 -45 52
-30 161 7 45 18 53 35 23z m1849 -160 c-1 -152 -4 -179 -16 -174 -13 5 -14 93
-2 331 1 12 5 22 11 22 5 0 8 -72 7 -179z m251 -22 c0 -184 -1 -199 -19 -208
-18 -10 -19 -5 -15 152 5 186 6 207 17 225 5 7 4 12 -2 12 -6 0 -11 4 -11 8 0
5 7 9 15 9 13 0 15 -29 15 -198z m54 175 c3 -7 -3 -18 -12 -23 -12 -7 -13 -10
-3 -11 9 0 12 -10 9 -35 -3 -24 0 -35 9 -35 17 0 15 -87 -2 -94 -16 -6 -8 -97
9 -108 7 -5 5 -8 -6 -8 -23 0 -32 -18 -18 -35 14 -17 10 -57 -7 -63 -10 -3
-13 15 -14 65 -1 37 -3 95 -6 128 -2 33 -1 101 3 152 4 71 9 91 19 87 7 -3 16
-12 19 -20z m-4118 -185 c3 -85 8 -156 10 -158 2 -2 4 75 4 172 0 106 4 178
10 182 6 3 11 1 11 -4 1 -6 2 -14 3 -18 10 -37 17 -143 19 -265 l2 -148 -44
-15 c-25 -8 -48 -15 -53 -15 -10 0 -11 356 -1 425 6 47 6 47 19 22 9 -15 16
-82 20 -178z m1325 159 c2 -72 -5 -94 -21 -68 -11 17 -13 71 -4 94 11 30 24
16 25 -26z m159 32 c0 -5 -5 -10 -11 -10 -5 0 -7 5 -4 10 3 6 8 10 11 10 2 0
4 -4 4 -10z m1560 -17 c0 -16 2 -63 3 -106 3 -89 -5 -114 -24 -74 -9 21 -10
30 -1 39 8 8 8 15 1 24 -5 7 -12 32 -15 55 -3 24 -7 46 -10 48 -5 6 27 41 38
41 4 0 8 -12 8 -27z m61 -104 c0 -56 -3 -104 -5 -107 -3 -3 -13 11 -21 31 -16
38 -21 128 -7 141 7 8 9 13 11 49 1 20 3 20 12 5 5 -10 10 -64 10 -119z
m-1903 2 c1 -92 -2 -122 -13 -131 -11 -9 -15 -7 -20 12 -7 31 0 191 9 206 4 7
4 17 1 22 -3 6 0 10 8 10 11 0 14 -25 15 -119z m3129 113 c13 -4 20 -10 18
-14 -5 -8 -7 -90 -4 -145 1 -11 0 -66 -1 -123 -2 -82 -6 -105 -19 -112 -12 -7
-12 -9 -2 -10 9 0 12 -8 9 -25 -3 -14 -1 -25 3 -25 5 0 9 -4 9 -10 0 -8 -48
-15 -51 -7 -5 11 -8 460 -4 468 7 11 12 11 42 3z m-4116 -195 c0 -141 -4 -167
-21 -139 -13 21 -12 43 1 34 8 -5 8 -1 0 14 -6 12 -11 75 -11 154 1 123 2 131
15 106 11 -20 15 -64 16 -169z m629 66 c0 -104 -2 -125 -15 -125 -17 0 -20 35
-4 46 8 4 7 9 -2 14 -17 11 -19 48 -2 62 11 9 10 13 -7 25 -20 14 -28 63 -10
63 6 0 10 9 10 20 0 11 7 20 15 20 13 0 15 -21 15 -125z m977 106 c-3 -12 1
-22 9 -25 21 -8 17 -44 -7 -56 -14 -8 -17 -15 -10 -23 15 -19 11 -127 -5 -127
-15 0 -15 1 -15 115 0 135 0 135 17 135 11 0 15 -6 11 -19z m710 -33 c-2 -13
-4 -5 -4 17 -1 22 1 32 4 23 2 -10 2 -28 0 -40z m1242 -108 c-2 -149 -3 -160
-20 -160 -21 0 -25 15 -9 25 6 4 7 12 3 18 -14 20 -10 132 5 130 6 -2 12 1 12
6 0 5 -6 12 -12 14 -10 4 -9 8 2 16 13 10 13 13 -2 21 -19 11 -13 44 6 33 6
-3 6 -1 -1 8 -15 16 -17 43 -3 34 6 -3 10 -1 10 4 0 6 3 11 6 11 3 0 4 -72 3
-160z m-2294 44 c0 -52 -3 -94 -7 -94 -12 0 -19 20 -12 32 9 14 11 78 2 78 -3
0 -11 -28 -16 -62 l-9 -63 -2 98 c-1 80 2 97 14 97 8 0 15 5 15 12 0 6 3 8 8
4 4 -4 7 -50 7 -102z m2404 -46 c-2 -124 -4 -140 -20 -149 -18 -9 -19 -3 -20
113 -1 68 -2 134 -3 148 -2 35 1 39 24 33 20 -5 21 -12 19 -145z m544 -3 c-1
-82 -2 -183 -2 -224 -1 -63 -3 -72 -17 -67 -15 6 -15 4 -2 -16 9 -13 24 -24
35 -26 19 -3 19 3 15 197 -5 210 0 271 22 271 23 0 29 -114 26 -488 0 -10 -3
-13 -8 -7 -4 6 -18 12 -32 13 -28 2 -121 30 -104 31 8 1 10 67 6 237 l-4 235
33 -3 34 -3 -2 -150z m-3020 53 c-3 -16 -9 -28 -14 -28 -5 0 -9 -8 -9 -17 0
-10 -5 -25 -11 -33 -8 -12 -9 -10 -4 8 4 12 2 22 -4 22 -17 0 -24 68 -11 100
10 24 15 28 26 19 11 -9 14 -7 15 7 1 11 5 3 9 -16 5 -19 6 -47 3 -62z m2297
-24 c0 -90 -2 -105 -14 -95 -10 8 -12 21 -6 46 5 23 3 40 -6 53 -14 20 -15 62
-2 62 4 0 8 9 8 20 0 11 5 20 10 20 6 0 10 -42 10 -106z m-3443 4 c-2 -18 -4
-4 -4 32 0 36 2 50 4 33 2 -18 2 -48 0 -65z m-163 67 c3 -8 1 -15 -4 -15 -6 0
-10 7 -10 15 0 8 2 15 4 15 2 0 6 -7 10 -15z m-606 -37 c-1 -13 3 -39 9 -58
19 -59 25 -110 13 -110 -5 0 -10 -12 -10 -27 0 -22 2 -25 10 -13 7 11 10 11
10 2 0 -7 -7 -23 -15 -36 -10 -15 -14 -42 -13 -84 3 -58 -4 -83 -19 -68 -11
11 -15 295 -5 326 8 21 7 30 -1 33 -9 3 -9 10 0 30 15 33 23 35 21 5z m4692 8
c0 -8 -4 -17 -9 -21 -6 -3 -9 4 -8 15 1 23 17 28 17 6z m68 7 c-21 -5 -24 -19
-6 -25 17 -6 25 -313 8 -323 -21 -13 -30 17 -30 97 0 52 -4 78 -12 81 -10 3
-10 9 0 26 7 11 9 21 4 21 -4 0 -8 9 -8 20 0 11 4 20 8 20 4 0 8 17 7 38 -1
33 -2 34 -9 12 -8 -24 -8 -23 -9 8 -1 30 1 32 32 31 17 -1 24 -3 15 -6z
m-2931 -45 c-3 -8 -6 -5 -6 6 -1 11 2 17 5 13 3 -3 4 -12 1 -19z m-1667 -12
c0 -8 -4 -17 -9 -21 -6 -3 -9 4 -8 15 1 23 17 28 17 6z m4530 4 c0 -5 -4 -10
-10 -10 -5 0 -10 5 -10 10 0 6 5 10 10 10 6 0 10 -4 10 -10z m-2640 -15 c0
-15 -26 -32 -36 -23 -2 3 -2 13 2 22 8 20 34 21 34 1z m-217 -38 c-3 -5 -10
-4 -15 1 -6 6 -7 16 -3 22 6 9 9 9 16 -1 4 -7 5 -17 2 -22z m-1663 -7 c0 -5
-7 -10 -15 -10 -8 0 -15 5 -15 10 0 6 7 10 15 10 8 0 15 -4 15 -10z m3930 -20
c0 -5 -4 -10 -10 -10 -5 0 -10 5 -10 10 0 6 5 10 10 10 6 0 10 -4 10 -10z
m-3940 -10 c0 -5 -4 -10 -10 -10 -5 0 -10 5 -10 10 0 6 5 10 10 10 6 0 10 -4
10 -10z m607 -52 c-2 -13 -4 -5 -4 17 -1 22 1 32 4 23 2 -10 2 -28 0 -40z
m1283 36 c0 -2 -9 -4 -20 -4 -11 0 -20 4 -20 9 0 5 9 7 20 4 11 -3 20 -7 20
-9z m2390 -3 c14 -27 13 -33 -7 -29 -9 2 -17 13 -18 26 -2 27 11 29 25 3z
m-2870 -1 c0 -5 -9 -10 -21 -10 -11 0 -17 5 -14 10 3 6 13 10 21 10 8 0 14 -4
14 -10z m545 0 c3 -5 -3 -10 -14 -10 -12 0 -21 5 -21 10 0 6 6 10 14 10 8 0
18 -4 21 -10z m-1969 -27 c-10 -10 -19 5 -10 18 6 11 8 11 12 0 2 -7 1 -15 -2
-18z m3944 17 c0 -13 -11 -13 -30 0 -12 8 -11 10 8 10 12 0 22 -4 22 -10z
m120 -15 c0 -14 -4 -25 -10 -25 -5 0 -10 11 -10 25 0 14 5 25 10 25 6 0 10
-11 10 -25z m-4054 -52 c-11 -11 -19 6 -11 24 8 17 8 17 12 0 3 -10 2 -21 -1
-24z m4278 12 c3 -8 1 -15 -4 -15 -6 0 -10 7 -10 15 0 8 2 15 4 15 2 0 6 -7
10 -15z m66 -14 c0 -6 -4 -13 -10 -16 -5 -3 -10 1 -10 9 0 9 5 16 10 16 6 0
10 -4 10 -9z m-4563 -23 c-3 -8 -6 -5 -6 6 -1 11 2 17 5 13 3 -3 4 -12 1 -19z
m4448 2 c-3 -5 -13 -6 -21 -3 -12 4 -13 8 -3 14 15 9 32 2 24 -11z m60 0 c3
-5 -1 -10 -9 -10 -9 0 -16 5 -16 10 0 6 4 10 9 10 6 0 13 -4 16 -10z m-4290
-9 c3 -5 1 -12 -5 -16 -5 -3 -10 1 -10 9 0 18 6 21 15 7z m4562 -13 c-3 -8 -6
-5 -6 6 -1 11 2 17 5 13 3 -3 4 -12 1 -19z m-207 2 c0 -5 -4 -10 -9 -10 -6 0
-13 5 -16 10 -3 6 1 10 9 10 9 0 16 -4 16 -10z m-4350 -54 c0 -8 -7 -16 -15
-20 -15 -5 -21 14 -8 27 11 12 23 8 23 -7z m4955 -147 c12 -5 2 -6 -28 -3 -26
3 -57 9 -70 14 -16 7 -8 8 28 3 28 -3 59 -9 70 -14z"/>
<path d="M4330 1756 c0 -9 5 -16 10 -16 6 0 10 4 10 9 0 6 -4 13 -10 16 -5 3
-10 -1 -10 -9z"/>
<path d="M2941 1714 c0 -11 3 -14 6 -6 3 7 2 16 -1 19 -3 4 -6 -2 -5 -13z"/>
<path d="M4422 1375 c0 -16 2 -22 5 -12 2 9 2 23 0 30 -3 6 -5 -1 -5 -18z"/>
<path d="M4433 1265 c0 -27 2 -38 4 -22 2 15 2 37 0 50 -2 12 -4 0 -4 -28z"/>
<path d="M2902 1470 c0 -14 2 -19 5 -12 2 6 2 18 0 25 -3 6 -5 1 -5 -13z"/>
<path d="M4950 1460 c0 -5 5 -10 11 -10 5 0 7 5 4 10 -3 6 -8 10 -11 10 -2 0
-4 -4 -4 -10z"/>
<path d="M2490 1460 c0 -19 3 -21 12 -12 9 9 9 15 0 24 -9 9 -12 7 -12 -12z"/>
<path d="M140 1116 c0 -14 5 -28 10 -31 6 -3 10 5 10 19 0 14 -4 28 -10 31 -6
3 -10 -5 -10 -19z"/>
<path d="M4187 955 c-4 -8 -2 -17 3 -20 6 -4 10 3 10 14 0 25 -6 27 -13 6z"/>
<path d="M4180 895 c0 -14 5 -25 10 -25 6 0 10 11 10 25 0 14 -4 25 -10 25 -5
0 -10 -11 -10 -25z"/>
<path d="M1152 650 c0 -19 2 -27 5 -17 2 9 2 25 0 35 -3 9 -5 1 -5 -18z"/>
<path d="M1152 500 c0 -14 2 -19 5 -12 2 6 2 18 0 25 -3 6 -5 1 -5 -13z"/>
<path d="M1152 425 c0 -16 2 -22 5 -12 2 9 2 23 0 30 -3 6 -5 -1 -5 -18z"/>
<path d="M2753 645 c0 -22 2 -30 4 -17 2 12 2 30 0 40 -3 9 -5 -1 -4 -23z"/>
<path d="M2752 510 c0 -14 2 -19 5 -12 2 6 2 18 0 25 -3 6 -5 1 -5 -13z"/>
<path d="M2750 436 c0 -22 3 -27 11 -19 8 8 8 16 0 30 -9 16 -10 14 -11 -11z"/>
<path d="M3827 553 c-3 -16 -1 -35 4 -43 6 -10 8 -2 9 28 0 48 -5 55 -13 15z"/>
<path d="M1012 505 c0 -16 2 -22 5 -12 2 9 2 23 0 30 -3 6 -5 -1 -5 -18z"/>
<path d="M3201 444 c0 -11 3 -14 6 -6 3 7 2 16 -1 19 -3 4 -6 -2 -5 -13z"/>
<path d="M1510 579 c0 -5 5 -7 10 -4 6 3 10 8 10 11 0 2 -4 4 -10 4 -5 0 -10
-5 -10 -11z"/>
<path d="M1641 464 c0 -11 3 -14 6 -6 3 7 2 16 -1 19 -3 4 -6 -2 -5 -13z"/>
<path d="M2201 464 c0 -11 3 -14 6 -6 3 7 2 16 -1 19 -3 4 -6 -2 -5 -13z"/>
<path d="M2323 635 c0 -8 4 -15 9 -15 4 0 8 7 8 15 0 8 -4 15 -8 15 -5 0 -9
-7 -9 -15z"/>
<path d="M609 268 c0 -7 -2 -23 -3 -35 -2 -13 1 -23 6 -23 4 0 8 16 8 35 0 32
-9 51 -11 23z"/>
<path d="M3631 534 c0 -11 3 -14 6 -6 3 7 2 16 -1 19 -3 4 -6 -2 -5 -13z"/>
<path d="M2057 587 c-11 -29 -9 -43 4 -30 6 6 9 19 7 29 -3 18 -4 18 -11 1z"/>
<path d="M136 1967 c-8 -38 -5 -52 11 -46 4 2 5 22 2 44 l-5 40 -8 -38z"/>
<path d="M5242 1040 c0 -14 2 -19 5 -12 2 6 2 18 0 25 -3 6 -5 1 -5 -13z"/>
<path d="M5236 925 c-3 -8 -1 -15 4 -15 6 0 10 7 10 15 0 8 -2 15 -4 15 -2 0
-6 -7 -10 -15z"/>
<path d="M55 890 c-3 -5 -1 -10 4 -10 6 0 11 5 11 10 0 6 -2 10 -4 10 -3 0 -8
-4 -11 -10z"/>
<path d="M480 345 c0 -14 5 -25 10 -25 6 0 10 11 10 25 0 14 -4 25 -10 25 -5
0 -10 -11 -10 -25z"/>
<path d="M2153 271 c-10 -17 -53 -82 -95 -145 -43 -63 -78 -118 -78 -121 0
-15 18 -2 29 22 10 22 14 24 22 12 9 -12 10 -12 6 1 -5 16 24 71 83 160 42 62
63 100 56 100 -2 0 -12 -13 -23 -29z"/>
<path d="M2340 169 c-23 -74 -44 -142 -46 -151 -4 -12 0 -18 10 -18 11 0 16 9
16 28 0 16 16 82 35 147 19 65 33 121 30 123 -2 2 -22 -56 -45 -129z"/>
<path d="M480 265 c0 -8 5 -15 10 -15 6 0 10 7 10 15 0 8 -4 15 -10 15 -5 0
-10 -7 -10 -15z"/>
<path d="M2471 203 c-23 -152 -28 -203 -20 -203 5 0 10 15 13 32 10 62 26 241
22 245 -2 2 -9 -31 -15 -74z"/>
<path d="M2930 260 c6 -11 13 -20 16 -20 2 0 0 9 -6 20 -6 11 -13 20 -16 20
-2 0 0 -9 6 -20z"/>
<path d="M1655 217 c-119 -89 -209 -150 -222 -150 -7 0 -11 -3 -8 -5 6 -7 -15
-32 -27 -32 -5 0 -6 6 -2 12 4 8 3 10 -2 5 -5 -5 -9 -12 -9 -15 0 -4 -4 -13
-8 -19 -5 -7 -6 -13 -2 -13 6 0 320 233 345 256 29 28 3 12 -65 -39z"/>
<path d="M2598 208 c-4 -142 -3 -208 5 -208 4 0 7 61 7 135 0 136 -8 188 -12
73z"/>
<path d="M2715 235 c14 -105 35 -228 40 -233 16 -16 13 18 -10 129 -27 131
-39 171 -30 104z"/>
<path d="M1951 157 c-116 -132 -135 -157 -122 -157 12 0 16 5 76 83 24 32 67
85 96 118 28 32 48 59 45 59 -3 0 -46 -46 -95 -103z"/>
<path d="M2823 248 c2 -7 22 -65 43 -128 45 -132 42 -125 51 -117 6 7 -85 257
-94 257 -3 0 -3 -6 0 -12z"/>
<path d="M3047 248 c6 -7 47 -66 92 -131 45 -64 87 -117 93 -117 5 0 -7 24
-28 53 -66 91 -156 207 -161 207 -3 0 -1 -6 4 -12z"/>
<path d="M4435 244 c83 -33 106 -44 101 -52 -2 -4 11 -6 30 -4 38 5 124 -23
124 -40 0 -6 7 -8 15 -4 8 3 15 1 15 -4 0 -5 7 -6 17 -3 10 4 14 2 10 -4 -8
-13 39 -27 55 -17 7 4 8 3 4 -4 -4 -7 -2 -12 5 -12 17 0 176 -48 214 -65 52
-23 110 -37 135 -33 17 2 -9 15 -85 41 -60 22 -123 43 -140 47 -16 5 -131 42
-254 84 -214 72 -341 108 -246 70z"/>
<path d="M2206 163 c-57 -114 -77 -163 -67 -163 7 0 63 113 107 218 28 64 3
30 -40 -55z"/>
<path d="M487 227 c-11 -29 -9 -53 4 -40 6 6 9 21 7 34 -3 21 -4 22 -11 6z"/>
<path d="M3510 236 c0 -2 8 -10 18 -17 15 -13 16 -12 3 4 -13 16 -21 21 -21
13z"/>
<path d="M2950 226 c0 -5 110 -217 117 -225 1 -2 6 -2 9 2 3 3 -22 55 -56 116
-55 99 -70 122 -70 107z"/>
<path d="M3186 218 c3 -10 9 -18 13 -18 4 0 45 -45 92 -100 46 -55 88 -100 92
-100 13 0 -26 48 -118 145 -47 50 -82 82 -79 73z"/>
<path d="M4618 223 c7 -3 16 -2 19 1 4 3 -2 6 -13 5 -11 0 -14 -3 -6 -6z"/>
<path d="M3554 201 c7 -11 46 -35 46 -28 0 3 -12 12 -26 22 -15 9 -23 12 -20
6z"/>
<path d="M1709 163 c-13 -16 -12 -17 4 -4 16 13 21 21 13 21 -2 0 -10 -8 -17
-17z"/>
<path d="M4310 170 c8 -5 20 -10 25 -10 6 0 3 5 -5 10 -8 5 -19 10 -25 10 -5
0 -3 -5 5 -10z"/>
<path d="M480 160 c-13 -9 -13 -10 0 -10 8 0 22 5 30 10 13 9 13 10 0 10 -8 0
-22 -5 -30 -10z"/>
<path d="M3980 160 c8 -5 20 -10 25 -10 6 0 3 5 -5 10 -8 5 -19 10 -25 10 -5
0 -3 -5 5 -10z"/>
<path d="M1062 83 c-78 -42 -141 -77 -139 -79 5 -5 264 131 282 147 17 17 0 9
-143 -68z"/>
<path d="M3395 131 c36 -40 158 -145 130 -112 -11 13 -51 51 -90 84 -38 34
-56 46 -40 28z"/>
<path d="M3509 147 c15 -19 71 -61 71 -54 0 2 -19 19 -42 37 -24 19 -37 26
-29 17z"/>
<path d="M3625 153 c15 -15 197 -144 210 -149 7 -3 12 1 12 9 0 8 -7 14 -16
13 -9 -1 -15 5 -13 12 1 8 -2 11 -7 7 -6 -3 -45 18 -88 48 -83 58 -115 77 -98
60z"/>
<path d="M1615 89 c-38 -33 -77 -67 -85 -76 -14 -15 -13 -15 6 -2 41 27 142
114 148 127 7 17 9 18 -69 -49z"/>
<path d="M1740 75 c-41 -41 -71 -75 -66 -75 5 0 14 7 21 17 9 13 14 13 20 3 5
-9 4 -11 -3 -6 -7 4 -12 2 -12 -4 0 -7 7 -9 16 -6 9 3 18 6 20 6 2 0 4 7 4 16
0 9 -5 12 -12 8 -7 -4 -5 2 6 14 10 12 23 20 28 19 6 -1 12 7 14 17 1 11 15
30 31 42 15 13 23 23 18 24 -6 0 -44 -34 -85 -75z"/>
<path d="M4147 139 c7 -7 15 -10 18 -7 3 3 -2 9 -12 12 -14 6 -15 5 -6 -5z"/>
<path d="M4383 137 c-3 -6 -1 -7 5 -3 5 3 12 3 14 -2 1 -4 35 -20 73 -36 39
-15 95 -38 125 -51 101 -41 119 -47 131 -43 7 2 -67 36 -165 75 -107 42 -179
66 -183 60z"/>
<path d="M4060 117 c25 -12 47 -25 50 -28 7 -7 58 -34 93 -48 15 -6 26 -15 23
-19 -2 -4 3 -8 12 -9 9 -1 28 -4 42 -9 14 -4 23 -4 20 -1 -11 12 -262 137
-273 136 -7 0 8 -10 33 -22z"/>
<path d="M1254 114 c-18 -14 -18 -14 6 -3 31 14 36 19 24 19 -6 0 -19 -7 -30
-16z"/>
<path d="M4180 124 c0 -3 39 -23 86 -45 79 -38 84 -42 67 -55 -17 -14 -17 -14
4 -5 16 8 30 7 57 -4 78 -33 55 -11 -34 31 -130 63 -180 84 -180 78z"/>
<path d="M4325 116 c33 -23 265 -115 265 -105 0 5 -7 9 -16 9 -8 0 -13 4 -10
9 3 5 -1 12 -10 15 -8 3 -12 2 -9 -4 8 -13 2 -13 -29 1 -14 7 -23 16 -20 20 3
5 -2 6 -10 3 -8 -3 -49 11 -92 30 -82 38 -100 44 -69 22z"/>
<path d="M1322 75 c-28 -20 -52 -37 -52 -40 0 -6 100 57 106 67 8 13 1 10 -54
-27z"/>
<path d="M3835 100 c7 -11 65 -43 65 -36 0 2 -16 13 -36 25 -19 12 -32 16 -29
11z"/>
<path d="M3975 95 c32 -27 152 -95 167 -95 13 0 -20 20 -132 82 -30 16 -46 22
-35 13z"/>
<path d="M1148 53 c-43 -26 -76 -49 -73 -51 3 -3 22 6 42 20 21 14 55 35 76
47 20 13 37 25 37 27 0 6 -1 6 -82 -43z"/>
<path d="M4650 90 c8 -5 20 -10 25 -10 6 0 3 5 -5 10 -8 5 -19 10 -25 10 -5 0
-3 -5 5 -10z"/>
<path d="M3610 65 c13 -14 26 -25 28 -25 3 0 -5 11 -18 25 -13 14 -26 25 -28
25 -3 0 5 -11 18 -25z"/>
<path d="M888 64 c-39 -21 -35 -28 5 -8 37 19 44 24 31 24 -5 -1 -21 -8 -36
-16z"/>
<path d="M4700 70 c8 -5 20 -10 25 -10 6 0 3 5 -5 10 -8 5 -19 10 -25 10 -5 0
-3 -5 5 -10z"/>
<path d="M3910 55 c0 -7 80 -58 84 -54 2 2 -16 16 -40 31 -24 15 -44 25 -44
23z"/>
<path d="M4750 50 c8 -5 20 -10 25 -10 6 0 3 5 -5 10 -8 5 -19 10 -25 10 -5 0
-3 -5 5 -10z"/>
<path d="M4905 45 c50 -18 57 -18 25 0 -14 8 -34 14 -45 14 -11 0 -2 -6 20
-14z"/>
<path d="M1887 36 c-10 -8 -14 -16 -10 -19 5 -3 14 3 21 14 14 22 13 23 -11 5z"/>
<path d="M2076 34 c-4 -9 -4 -19 -1 -22 2 -3 7 3 11 12 4 9 4 19 1 22 -2 3 -7
-3 -11 -12z"/>
<path d="M3125 30 c3 -5 8 -10 11 -10 2 0 4 5 4 10 0 6 -5 10 -11 10 -5 0 -7
-4 -4 -10z"/>
<path d="M3665 20 c10 -11 20 -20 23 -20 3 0 -3 9 -13 20 -10 11 -20 20 -23
20 -3 0 3 -9 13 -20z"/>
<path d="M4825 21 c22 -11 47 -19 55 -19 17 0 -32 22 -70 32 -14 3 -7 -3 15
-13z"/>
<path d="M805 20 c-3 -6 1 -7 9 -4 18 7 21 14 7 14 -6 0 -13 -4 -16 -10z"/>
<path d="M1234 14 c-18 -14 -18 -15 4 -4 12 6 22 13 22 15 0 8 -5 6 -26 -11z"/>
<path d="M3480 26 c0 -2 8 -10 18 -17 15 -13 16 -12 3 4 -13 16 -21 21 -21 13z"/>
<path d="M4989 15 c18 -8 38 -15 45 -14 15 1 -46 28 -64 28 -8 0 0 -6 19 -14z"/>
<path d="M4628 3 c6 -2 18 -2 25 0 6 3 1 5 -13 5 -14 0 -19 -2 -12 -5z"/>
</g>
</svg>
