<?xml version="1.0" standalone="no"?>
<!DOCTYPE svg PUBLIC "-//W3C//DTD SVG 20010904//EN"
 "http://www.w3.org/TR/2001/REC-SVG-20010904/DTD/svg10.dtd">
<svg version="1.0" xmlns="http://www.w3.org/2000/svg"
 width="545.000000pt" height="545.000000pt" viewBox="0 0 545.000000 545.000000"
 preserveAspectRatio="xMidYMid meet">

<g transform="translate(0.000000,545.000000) scale(0.100000,-0.100000)"
fill="#000000" stroke="none">
<path d="M2255 5426 c-251 -45 -451 -110 -673 -216 -260 -126 -444 -249 -664
-447 -426 -383 -721 -883 -842 -1425 -49 -220 -59 -316 -60 -578 -1 -303 21
-479 90 -725 92 -328 275 -687 478 -940 37 -45 54 -74 50 -85 -27 -61 -35
-122 -31 -225 6 -128 21 -192 42 -175 10 8 21 -6 53 -72 22 -46 64 -109 92
-140 50 -56 190 -158 217 -158 29 0 10 -16 -33 -29 -67 -20 -106 -56 -102 -95
3 -26 11 -34 57 -57 124 -62 25 -59 1795 -59 l1614 0 68 21 c133 41 188 84
164 129 -13 23 -95 66 -147 76 -18 3 -33 9 -33 13 0 3 27 21 61 40 129 71 232
183 275 298 22 59 23 61 34 43 29 -47 52 200 30 323 -11 63 -11 71 6 92 351
435 550 886 619 1400 23 165 23 509 1 670 -69 496 -259 945 -562 1325 -94 118
-339 361 -460 457 -322 255 -712 435 -1148 530 -117 25 -135 26 -491 29 -352
3 -376 2 -500 -20z m755 -71 c322 -37 604 -122 902 -271 417 -208 744 -504
1033 -934 177 -265 326 -679 376 -1050 18 -128 18 -528 1 -650 -46 -323 -136
-606 -278 -880 -69 -131 -189 -319 -246 -383 l-33 -38 -48 56 -48 55 63 88
c220 301 360 643 430 1048 30 176 32 539 4 719 -77 504 -278 929 -614 1300
-361 399 -891 690 -1432 787 -147 26 -498 36 -651 19 -875 -100 -1637 -661
-2000 -1472 -215 -483 -275 -1015 -168 -1504 67 -308 189 -598 356 -848 l93
-138 -43 -50 c-23 -27 -45 -49 -49 -49 -3 0 -29 30 -56 67 -326 442 -492 950
-492 1503 0 210 13 351 46 520 121 609 438 1128 950 1556 247 206 634 399 974
484 146 37 261 58 375 69 147 14 421 12 555 -4z m74 -571 c34 -14 86 -30 116
-35 82 -14 153 -53 200 -109 22 -26 60 -60 84 -74 23 -13 55 -44 71 -68 15
-24 49 -64 75 -89 29 -28 51 -59 55 -79 4 -18 22 -49 41 -70 49 -54 76 -120
73 -183 -1 -28 3 -65 9 -80 15 -35 15 -107 2 -143 -6 -15 -9 -29 -6 -31 2 -2
47 33 101 79 53 46 100 84 104 86 4 1 63 -59 131 -135 69 -75 150 -164 182
-197 l56 -60 55 47 c30 26 59 47 65 47 5 0 52 -48 105 -107 170 -192 173 -194
224 -157 20 15 24 13 100 -54 43 -38 86 -78 95 -88 18 -21 36 -124 22 -124 -5
0 -51 37 -102 81 -92 80 -94 81 -108 60 -8 -11 -21 -21 -28 -21 -25 0 -152 99
-230 179 -43 44 -80 81 -81 81 -2 0 -11 -23 -20 -51 -17 -49 -16 -123 1 -176
3 -10 -14 3 -39 28 -33 33 -50 62 -61 100 -14 49 -30 68 -152 189 l-136 135 6
-60 c3 -33 15 -89 26 -124 10 -36 17 -67 15 -70 -3 -2 -24 1 -47 8 -28 9 -58
29 -86 59 l-43 46 -35 -19 c-34 -18 -35 -18 -49 1 -18 24 -19 43 0 87 24 57
18 61 -29 22 l-45 -36 -45 26 c-48 28 -56 44 -32 65 29 23 49 108 42 173 -4
34 -9 92 -11 128 -3 77 -22 117 -76 170 -22 21 -39 48 -39 60 0 30 -34 83 -65
99 -13 7 -34 33 -46 56 -20 43 -71 84 -102 84 -9 0 -32 24 -51 54 -43 67 -90
97 -169 105 -35 4 -82 18 -107 31 -39 21 -62 25 -167 28 -94 3 -133 0 -170
-12 -29 -10 -62 -14 -80 -10 -46 9 -141 -14 -209 -51 -33 -18 -75 -36 -94 -40
-19 -4 -50 -25 -74 -49 -23 -24 -54 -46 -71 -50 -45 -11 -129 -103 -149 -163
-9 -27 -29 -62 -45 -77 -16 -15 -36 -46 -46 -69 -9 -23 -23 -57 -31 -75 -18
-42 -18 -90 1 -126 8 -15 15 -39 15 -51 0 -38 16 -71 51 -103 l33 -31 -16 -34
c-27 -57 5 -66 51 -15 l29 33 59 -16 c47 -13 67 -14 94 -5 29 10 39 8 74 -11
48 -27 94 -29 160 -6 43 14 58 15 124 4 42 -7 83 -19 92 -27 10 -9 48 -17 91
-20 63 -5 87 -2 159 21 46 14 95 31 109 38 14 6 29 9 34 8 17 -4 110 21 149
41 20 10 37 26 38 36 0 15 1 14 8 -2 5 -14 10 -16 15 -8 4 7 31 12 62 12 83 0
122 27 165 113 24 46 25 47 47 31 50 -35 13 -91 -137 -200 -2 -2 8 -23 22 -46
14 -24 28 -60 32 -79 6 -32 3 -39 -20 -58 -47 -36 -89 -26 -100 24 -12 49 -33
75 -61 75 -30 0 -264 -86 -382 -141 -86 -39 -98 -59 -37 -59 51 0 84 -16 103
-51 59 -106 74 -114 48 -24 -17 53 -15 61 9 51 37 -14 59 -152 35 -226 l-8
-25 -13 33 c-19 45 -29 40 -29 -16 0 -51 -29 -149 -56 -190 -20 -31 -34 -15
-34 41 0 23 -4 36 -10 32 -5 -3 -10 -16 -10 -29 0 -32 -44 -114 -90 -166 l-39
-45 -1 48 c0 26 -3 47 -8 47 -4 0 -18 -24 -31 -52 -27 -58 -114 -156 -187
-207 l-46 -34 26 49 c35 65 33 68 -12 25 -64 -60 -190 -171 -195 -171 -8 0
-83 104 -105 145 -20 38 -21 39 -22 13 0 -40 -13 -35 -53 20 -54 73 -85 143
-98 218 -10 60 -13 66 -22 46 -24 -53 -55 19 -57 133 -1 62 -2 68 -14 52 -21
-27 -25 -9 -14 51 l11 52 63 0 c58 0 87 -11 65 -24 -5 -4 -17 -29 -26 -57 -16
-49 -16 -52 6 -107 12 -31 26 -61 31 -67 5 -5 4 3 -2 19 -8 23 -8 31 2 38 22
14 202 9 284 -8 43 -9 99 -14 125 -12 89 9 140 75 87 112 -28 20 -44 20 -51 2
-4 -10 -1 -13 7 -10 7 3 18 -2 25 -10 9 -11 7 -18 -15 -35 -33 -26 -118 -28
-208 -5 -45 12 -88 15 -163 11 l-103 -5 0 28 c0 64 48 135 83 124 17 -5 19 -3
12 12 -5 11 -10 35 -13 55 -3 30 1 40 24 58 l27 22 27 -26 c30 -29 47 -31 77
-10 21 15 23 14 28 -8 5 -18 -1 -31 -24 -55 -17 -17 -31 -37 -31 -46 0 -13 5
-13 51 0 38 12 54 13 63 4 8 -8 8 -13 0 -18 -7 -4 24 -7 67 -8 53 -1 86 -6
102 -17 37 -24 68 -82 76 -140 l8 -52 7 38 c6 29 3 52 -13 96 -26 72 -26 71 4
71 20 0 25 -5 25 -25 0 -14 6 -25 14 -25 9 0 12 8 8 25 -3 19 1 27 21 34 29
11 77 60 77 78 0 7 7 16 16 21 17 9 17 14 2 117 -2 16 13 27 77 58 93 45 351
143 399 153 39 7 59 -14 77 -78 8 -33 14 -38 38 -38 49 0 53 19 18 90 -47 95
-61 100 -189 71 -57 -13 -168 -43 -248 -69 -80 -25 -152 -45 -160 -45 -8 0
-69 6 -134 12 -133 13 -290 2 -352 -24 -53 -22 -129 -19 -162 5 -16 12 -58 25
-97 32 -90 13 -268 6 -290 -12 -21 -17 -13 -65 15 -95 12 -12 27 -52 35 -93 8
-39 20 -83 25 -98 6 -15 9 -33 6 -39 -2 -7 1 -12 7 -11 14 1 17 -6 17 -36 0
-45 -14 -52 -58 -29 -28 14 -63 22 -106 23 -80 2 -93 -7 -35 -22 102 -28 181
-88 195 -148 4 -15 12 -34 19 -42 7 -8 20 -40 30 -70 10 -30 26 -71 36 -91 10
-20 16 -39 13 -42 -3 -3 0 -8 7 -13 7 -4 10 -3 6 3 -4 6 -1 16 7 22 11 9 18 0
35 -46 19 -50 44 -87 147 -218 11 -14 18 -16 21 -7 6 14 23 16 23 2 0 -12 90
-130 99 -130 4 0 15 16 25 34 10 19 28 44 41 56 l21 20 -3 -156 c-2 -86 -6
-160 -8 -164 -3 -4 -36 -26 -73 -48 -54 -32 -83 -43 -135 -48 l-65 -7 -58 47
c-32 26 -79 59 -106 72 -42 22 -48 27 -42 49 5 21 1 27 -22 36 -21 7 -34 7
-46 0 -71 -44 -134 43 -153 209 -9 82 17 212 60 294 19 38 33 71 31 73 -11 11
-113 -150 -132 -207 l-21 -65 -79 -6 c-87 -7 -171 -35 -224 -74 -41 -30 -28
-32 41 -4 71 27 163 35 214 16 39 -13 40 -16 46 -68 3 -30 11 -72 17 -93 6
-22 10 -42 7 -44 -2 -2 -26 1 -52 6 -26 6 -68 14 -93 18 -25 3 -86 21 -136 40
l-91 34 -54 -30 c-37 -21 -68 -30 -100 -30 -34 0 -51 -6 -66 -22 l-21 -23 33
-128 34 -128 -46 -20 c-25 -10 -57 -29 -72 -41 l-26 -21 25 7 c65 17 125 25
132 18 9 -9 48 -157 48 -182 0 -9 -14 -29 -31 -46 -84 -78 -110 -150 -73 -203
11 -15 17 -46 18 -90 1 -53 6 -72 24 -95 12 -16 22 -40 22 -53 0 -33 17 -63
54 -95 17 -14 28 -29 24 -33 -10 -10 -105 14 -165 42 -107 50 -209 174 -229
279 -8 41 -20 52 -29 24 -13 -41 -25 -18 -25 48 0 80 20 162 56 233 l26 52
-26 -7 c-42 -11 -31 10 54 99 44 46 84 95 90 110 5 14 10 57 10 94 0 127 49
256 134 348 26 29 54 53 62 53 21 0 56 -89 49 -125 l-7 -30 26 30 c26 31 33
59 17 69 -20 13 -54 172 -54 256 0 101 23 174 82 260 l40 59 -29 -11 c-16 -5
-35 -8 -42 -5 -19 7 90 108 148 136 27 13 52 30 57 37 9 15 90 43 137 46 31 3
35 1 32 -19 -5 -35 14 -28 39 15 13 20 46 61 73 90 l50 53 -23 22 -23 22 -52
-57 c-29 -32 -58 -58 -63 -58 -6 0 -68 41 -138 91 -70 49 -129 88 -132 86 -2
-3 5 -44 16 -92 38 -159 23 -195 -53 -125 l-43 39 -22 -55 c-24 -56 -162 -216
-176 -203 -3 4 5 45 19 90 28 93 56 212 56 236 0 9 -46 -32 -103 -90 -57 -59
-108 -107 -113 -107 -6 0 -23 14 -39 30 l-29 30 -26 -73 c-25 -72 -63 -130
-111 -172 -17 -15 -21 -16 -17 -4 13 35 20 129 10 129 -9 0 -117 -83 -225
-174 l-49 -41 -20 28 -20 27 -41 -37 c-49 -44 -55 -35 -37 52 9 45 20 63 57
98 24 23 48 43 53 45 4 2 21 -9 38 -22 l30 -26 168 170 c92 94 172 170 178
170 6 0 31 -20 56 -45 l46 -46 34 43 c67 83 272 309 286 315 8 3 60 -35 124
-92 l111 -98 34 19 35 18 50 -49 c48 -48 50 -48 70 -30 12 11 20 31 20 50 0
17 6 38 13 47 14 19 134 68 166 68 27 0 40 29 18 42 -23 13 -34 35 -63 135
-15 51 -23 101 -21 119 8 49 66 180 96 218 16 20 41 61 56 93 33 67 96 133
145 153 19 7 57 33 84 57 26 24 53 43 59 43 6 0 56 21 111 47 94 44 108 48
206 54 58 4 118 11 134 16 15 5 74 10 129 10 88 2 109 -1 161 -23z m-179 -68
c31 -13 35 -13 35 0 0 23 78 17 139 -11 47 -22 52 -27 40 -42 -8 -9 -10 -18
-4 -20 76 -26 116 -102 97 -189 -10 -51 -9 -57 19 -110 16 -31 29 -66 29 -79
0 -19 26 -43 35 -33 2 2 5 31 7 65 3 46 1 60 -7 53 -8 -7 -17 0 -29 23 -13 26
-15 45 -9 97 l8 65 46 3 c40 3 50 -1 67 -23 12 -15 23 -21 27 -15 12 19 37 10
71 -24 53 -53 41 -77 -17 -35 -21 15 -38 19 -56 14 -17 -4 -32 0 -46 12 -20
18 -20 17 -13 -10 3 -15 2 -37 -5 -48 -14 -27 -9 -31 27 -17 70 26 122 -26
110 -109 -7 -53 14 -60 34 -12 10 24 11 38 2 63 -16 44 -16 46 14 46 34 0 84
-50 84 -85 l0 -26 -24 28 c-30 35 -46 24 -18 -12 12 -14 26 -42 32 -61 13 -39
25 -44 33 -13 5 17 9 19 26 9 24 -12 61 -79 61 -109 0 -24 -51 -37 -104 -27
-28 5 -38 15 -58 53 -12 26 -29 49 -36 51 -11 3 -12 0 -3 -16 20 -38 13 -100
-16 -138 -37 -49 -57 -58 -87 -39 -33 22 -95 5 -144 -39 -58 -52 -73 -57 -133
-46 -70 13 -64 15 -112 -28 -45 -42 -130 -73 -148 -55 -14 14 45 89 100 128
37 26 52 30 104 29 40 0 74 -7 97 -19 31 -16 33 -16 21 -1 -21 25 3 62 64 97
53 30 128 39 165 19 19 -10 50 -4 50 9 0 4 -11 13 -24 19 -46 20 -56 49 -42
117 15 73 11 97 -17 93 -21 -3 -55 -51 -56 -78 -2 -27 -21 -39 -48 -29 -18 6
-22 6 -17 -3 5 -8 2 -9 -9 -5 -9 3 -19 2 -22 -4 -4 -5 -10 -7 -15 -4 -9 6 -23
-25 -15 -33 3 -3 5 0 5 7 0 7 5 9 11 6 14 -9 -19 -45 -41 -45 -22 0 -47 28
-55 62 -4 15 -13 32 -20 38 -9 8 -14 3 -18 -20 -9 -41 -23 -38 -38 8 -6 20
-24 53 -39 72 -23 30 -28 47 -32 115 -6 99 -24 137 -75 158 -64 25 -144 31
-186 13 l-37 -15 6 27 6 27 -26 -26 c-18 -16 -28 -37 -28 -57 -1 -17 -4 -31
-7 -30 -3 0 -20 -3 -38 -7 -41 -9 -67 -39 -87 -98 -19 -56 -20 -67 -6 -67 6 0
10 6 10 14 0 22 65 86 87 86 11 0 34 7 52 16 21 11 51 15 89 12 31 -1 59 1 61
7 6 17 -59 46 -105 47 -44 1 -44 1 -27 20 16 18 26 20 92 14 82 -7 130 -30
149 -71 29 -64 -1 -106 -70 -98 -23 3 -47 9 -52 14 -12 11 -106 12 -106 2 1
-23 14 -53 19 -44 10 15 29 -1 35 -29 7 -31 -57 -125 -80 -116 -21 8 -64 -11
-64 -29 0 -21 41 -29 111 -21 l60 7 41 -41 c28 -28 44 -37 49 -29 11 19 -17
93 -32 83 -14 -8 -49 20 -49 38 0 10 13 32 29 50 25 28 34 32 80 31 63 -1 94
-20 122 -76 23 -46 47 -77 60 -77 5 0 6 8 3 18 -2 9 1 7 7 -5 14 -26 6 -51
-17 -60 -12 -4 -34 12 -78 59 -55 59 -99 88 -112 75 -5 -5 11 -39 32 -67 19
-25 26 -89 14 -126 -16 -48 -80 -94 -131 -94 -46 0 -88 15 -105 38 -20 26 -17
31 24 37 60 11 72 16 72 30 0 14 -16 20 -155 56 l-70 18 -43 -45 c-24 -24 -45
-44 -46 -44 -22 0 -124 25 -133 32 -9 8 -13 7 -13 -3 0 -11 -2 -11 -10 1 -15
23 -12 98 6 135 23 49 58 76 116 91 44 10 49 14 31 19 -13 4 -23 15 -23 26 0
27 -17 24 -36 -7 -24 -36 -39 -16 -24 33 26 78 99 145 178 161 24 5 38 14 40
26 4 17 -1 18 -32 13 -47 -8 -48 11 -1 52 63 55 180 74 225 36 8 -7 42 -12 76
-13 70 0 128 -25 167 -72 31 -36 41 -82 35 -150 -5 -48 -4 -50 33 -76 39 -26
64 -69 75 -123 10 -46 24 -37 24 14 0 42 -9 65 -57 148 -8 14 -10 48 -6 101
l5 81 -37 38 c-47 48 -118 80 -162 74 -17 -3 -34 -3 -37 1 -4 3 -25 5 -49 5
-43 -2 -107 15 -107 28 0 8 64 26 98 28 12 1 38 -6 57 -13z m-256 -21 c-3 -2
-34 -14 -69 -27 -58 -20 -69 -29 -100 -76 -28 -43 -36 -50 -38 -33 -3 17 -6
19 -23 8 -10 -6 -19 -17 -19 -22 0 -6 -33 -21 -74 -33 -95 -29 -139 -67 -166
-147 -11 -32 -20 -67 -20 -77 0 -10 -8 -22 -17 -25 -33 -12 -73 -58 -73 -82 0
-27 -39 -111 -52 -111 -4 0 -8 16 -8 35 0 25 7 43 24 58 18 17 21 26 13 38
-14 22 13 64 54 87 24 14 29 24 29 53 0 70 104 186 158 176 18 -4 27 3 42 32
24 48 99 84 100 49 0 -7 10 0 22 16 28 37 131 86 182 86 22 0 37 -2 35 -5z
m609 -40 c39 -17 78 -49 93 -77 8 -14 4 -17 -30 -16 -32 0 -48 8 -87 44 -26
24 -51 44 -56 44 -4 0 -8 5 -8 10 0 15 46 12 88 -5z m-854 -174 c6 -10 -16
-21 -40 -21 -18 0 -124 -102 -124 -118 0 -7 7 -12 15 -12 19 0 20 5 -15 -80
-16 -39 -41 -81 -55 -92 -14 -11 -25 -28 -25 -38 0 -16 6 -18 33 -13 l32 5 -3
-66 c-4 -68 -16 -83 -42 -51 -20 24 -49 18 -62 -12 l-12 -28 -4 29 c-2 17 3
35 11 44 13 13 13 18 -4 46 -40 65 -17 124 56 150 30 10 39 18 37 32 -15 80
-14 89 18 132 51 71 163 127 184 93z m221 -451 c3 -5 1 -10 -5 -10 -6 0 -20
-21 -31 -46 -24 -54 -52 -58 -57 -7 -2 22 3 37 19 52 24 22 64 28 74 11z
m-217 -60 c24 -11 41 -24 37 -29 -3 -6 -12 -7 -21 -4 -8 3 -30 -2 -48 -12 -18
-10 -41 -15 -50 -12 -19 7 -21 48 -4 65 17 17 36 15 86 -8z m1326 4 c11 -28 6
-74 -9 -104 -25 -48 -39 -38 -31 23 3 28 6 62 6 75 0 25 25 30 34 6z m-1551
-300 c15 -8 27 -18 27 -23 0 -5 -17 0 -37 10 -21 10 -52 19 -70 19 -18 0 -33
5 -33 11 0 14 74 2 113 -17z m-199 0 c-18 -15 -18 -15 9 -9 36 7 35 -10 -5
-64 -34 -47 -41 -93 -16 -117 13 -14 17 -10 38 38 40 95 52 118 62 118 6 0 8
-15 4 -37 -11 -60 -9 -85 8 -125 12 -28 20 -35 35 -31 19 5 19 6 1 36 -25 44
-33 92 -20 116 15 28 25 26 39 -8 7 -15 24 -34 37 -40 14 -6 24 -15 22 -19 -2
-4 -14 -28 -26 -54 -25 -52 -30 -53 -132 -48 -72 3 -109 53 -118 157 -5 72 11
103 56 103 25 0 25 0 6 -16z m760 -3 c46 -11 69 -61 62 -141 -10 -113 -43
-134 -204 -128 l-94 3 -33 38 c-36 41 -70 145 -61 183 9 35 42 48 141 54 91 6
136 4 189 -9z m997 -29 c41 -27 81 -67 167 -168 32 -37 33 -38 27 -11 -5 24
-2 27 19 27 48 0 173 -47 232 -87 61 -42 180 -160 171 -169 -3 -4 -22 -1 -42
6 -20 7 -39 10 -41 7 -3 -3 8 -24 26 -48 94 -130 93 -336 -4 -551 -13 -32 -14
-38 -2 -38 17 0 82 95 98 142 6 18 15 37 19 42 21 23 124 -113 167 -222 25
-63 27 -76 26 -225 -1 -121 1 -155 10 -148 9 8 28 -20 70 -105 32 -63 56 -117
53 -120 -3 -3 -15 -1 -26 6 -26 13 -27 4 -6 -64 8 -27 15 -83 15 -124 0 -82
-18 -202 -29 -202 -5 0 -16 9 -26 20 -24 27 -29 26 -43 -14 -22 -61 -71 -116
-148 -166 -127 -83 -251 -109 -426 -90 -108 12 -198 27 -206 35 -2 2 5 16 17
31 22 28 28 54 11 54 -5 0 -17 -12 -27 -27 -10 -14 -44 -46 -76 -70 l-59 -43
-142 0 c-116 0 -148 4 -182 19 -67 31 -59 37 40 33 74 -3 99 -1 126 13 45 23
24 34 -54 28 -34 -3 -86 0 -116 6 -76 16 -160 56 -160 77 0 12 6 15 23 10 87
-24 297 -12 359 20 15 8 28 16 28 17 0 2 -30 0 -67 -4 -117 -13 -207 -10 -289
11 -89 23 -115 40 -95 64 19 23 77 36 162 36 81 0 229 24 264 43 19 10 18 11
-10 18 -16 5 -98 15 -180 23 -83 8 -158 18 -168 22 -10 3 -17 17 -17 31 0 19
9 28 43 43 59 26 166 37 178 19 6 -10 9 -10 9 -1 0 7 14 12 38 12 20 1 64 7
97 14 58 12 59 13 35 26 -14 7 -27 11 -30 9 -2 -2 -9 8 -14 24 -7 19 -6 31 1
38 19 19 65 -4 168 -86 54 -43 92 -69 87 -58 -6 11 -18 25 -26 33 -9 7 -16 18
-16 24 0 23 194 203 248 230 108 55 246 77 349 57 74 -14 36 7 -44 25 -148 33
-292 8 -385 -66 -20 -17 -40 -30 -43 -30 -4 0 -25 14 -46 31 -48 38 -114 168
-130 254 -18 97 -7 194 27 250 l29 47 120 -1 c66 -1 140 -6 164 -12 63 -14 63
-3 0 24 -55 25 -119 41 -199 52 -115 16 -203 57 -284 134 -56 53 -59 55 -52
26 4 -16 28 -57 54 -89 45 -58 45 -59 18 -52 -38 9 -25 -9 25 -34 23 -12 39
-28 39 -38 0 -23 -53 -133 -91 -188 l-31 -46 -19 31 c-13 22 -27 31 -46 32
-65 2 -81 6 -125 32 -26 15 -50 32 -53 37 -4 6 -30 -3 -65 -20 -66 -33 -143
-52 -310 -75 -152 -21 -261 -49 -339 -85 -35 -17 -66 -28 -69 -25 -9 9 -13
191 -5 230 7 33 26 54 123 141 63 56 117 98 118 93 8 -21 34 -4 96 62 36 39
66 66 66 60 0 -23 30 -10 57 26 69 89 86 101 221 158 132 55 226 85 268 85 13
0 34 14 51 34 59 71 183 126 284 126 27 0 49 5 49 10 0 15 -148 12 -202 -4
-60 -19 -84 -31 -133 -71 -70 -56 -152 -55 -231 5 -21 16 -42 30 -46 30 -20 0
-4 -34 31 -68 l40 -38 -57 -19 c-31 -10 -74 -26 -94 -36 -21 -9 -38 -16 -38
-16 0 1 9 31 20 65 11 36 20 92 20 127 l0 64 45 -20 c49 -22 165 -27 223 -10
103 31 212 141 212 214 0 46 19 48 81 9z m-1518 -35 c8 -20 -9 -41 -27 -34
-23 9 -21 47 3 47 10 0 21 -6 24 -13z m151 -59 c13 -21 -2 -51 -27 -56 -18 -4
-61 53 -52 68 10 17 67 7 79 -12z m963 -1034 c4 -11 -93 -50 -177 -73 -19 -5
-27 -10 -16 -10 10 -1 66 15 124 34 64 22 109 32 115 26 9 -9 -159 -78 -368
-151 -130 -45 -364 -132 -418 -155 -22 -9 -44 -14 -49 -13 -17 6 125 77 215
108 109 38 83 38 -31 1 -112 -37 -214 -88 -314 -157 -43 -29 -78 -50 -78 -46
1 13 54 68 100 104 64 50 194 123 268 149 34 12 61 23 59 25 -6 6 -108 -31
-167 -61 -94 -47 -186 -113 -239 -171 -43 -47 -55 -55 -81 -52 l-30 3 45 58
c58 73 152 144 276 206 108 55 195 78 434 115 88 14 189 36 225 49 68 26 101
30 107 11z m-1917 -20 c35 -14 142 -43 239 -64 232 -50 321 -86 440 -180 48
-38 141 -151 141 -171 0 -13 -44 -11 -59 4 -11 10 -13 10 -7 0 16 -29 -23 -10
-59 28 -55 57 -124 99 -233 142 -114 46 -129 47 -37 3 77 -37 192 -110 160
-103 -11 3 -130 53 -265 112 -135 59 -292 127 -350 152 -121 51 -133 59 -98
68 17 4 42 -1 74 -18 55 -27 183 -71 190 -65 2 3 -22 13 -54 22 -94 30 -167
70 -156 87 7 12 1 13 74 -17z m2084 -33 c-9 -8 -434 -168 -819 -308 -177 -64
-235 -89 -325 -139 -40 -22 -55 -25 -127 -22 -67 2 -87 7 -110 26 -34 27 -11
16 -318 151 -554 242 -620 272 -629 281 -31 31 99 -21 486 -196 117 -53 264
-118 326 -145 63 -27 128 -60 145 -75 29 -24 36 -26 123 -22 88 3 95 5 126 34
26 24 104 57 368 152 184 67 430 157 545 201 195 73 233 84 209 62z m25 -290
c7 -138 10 -255 6 -260 -3 -6 -41 -11 -88 -11 -94 0 -186 -21 -228 -51 -62
-44 -46 -113 31 -139 l45 -14 -52 -7 c-98 -13 -145 -74 -103 -132 12 -16 23
-43 24 -60 2 -22 15 -42 47 -71 25 -23 57 -57 72 -77 31 -43 115 -89 166 -90
20 -1 47 -4 61 -8 l25 -8 -25 -11 c-56 -25 -212 -86 -325 -128 -66 -24 -221
-82 -345 -128 -124 -46 -227 -82 -228 -80 -2 1 -14 83 -27 181 -14 98 -49 351
-79 563 -43 300 -53 387 -43 396 7 6 145 59 307 117 162 59 390 143 505 186
116 44 217 80 226 80 13 1 17 -34 28 -248z m-2009 89 c508 -220 515 -223 524
-231 4 -4 30 -135 56 -291 26 -155 69 -395 94 -533 57 -315 54 -295 47 -295
-3 0 -94 39 -201 86 -107 47 -266 117 -354 155 -154 66 -205 96 -189 109 5 4
30 15 56 24 56 21 117 77 117 108 0 12 12 35 28 51 20 20 27 40 29 70 1 23 5
54 8 70 6 23 1 33 -33 67 -27 27 -48 40 -67 40 -27 0 -27 1 -12 18 10 10 17
32 17 49 0 76 -88 118 -238 111 l-87 -3 -12 40 c-13 45 -112 422 -124 473 -5
24 -4 32 4 28 7 -2 158 -68 337 -146z m2117 56 c-3 -30 -15 -76 -27 -103 -19
-40 -23 -45 -29 -28 -4 10 -9 44 -10 74 -2 52 0 57 31 83 18 15 35 28 37 28 2
0 1 -24 -2 -54z m39 -180 c-14 -42 -26 -79 -26 -81 0 -15 27 0 69 40 81 76 95
56 30 -43 l-41 -62 -25 20 c-14 11 -40 20 -58 20 -28 0 -33 4 -39 31 -13 66
-8 86 27 108 18 11 44 32 57 46 35 38 37 14 6 -79z m-1444 -176 c50 1 104 10
156 25 20 7 22 4 22 -28 0 -33 -4 -38 -46 -57 -34 -14 -67 -20 -123 -20 -96 0
-124 13 -132 63 -3 20 -4 39 -2 41 3 2 20 -2 38 -10 19 -8 58 -14 87 -14z
m-970 -93 c-2 -15 -2 -27 0 -28 2 -1 59 -4 128 -8 127 -7 173 -20 194 -53 16
-26 0 -36 -79 -53 -46 -9 -73 -11 -81 -4 -8 7 -13 6 -16 -2 -2 -7 -35 -16 -72
-20 -38 -5 -71 -11 -74 -14 -24 -24 117 -47 269 -43 93 3 109 1 128 -16 12
-11 21 -25 21 -31 0 -11 -62 -43 -117 -59 -44 -14 -170 -23 -225 -16 -45 5
-55 3 -47 -6 14 -17 97 -34 164 -34 41 0 56 -4 64 -17 10 -17 10 -17 11 0 0 9
1 17 3 17 1 0 33 9 70 19 l68 20 -3 -22 c-7 -46 -171 -103 -275 -95 -61 5 -69
-6 -18 -28 43 -18 128 -17 180 1 54 20 61 19 40 -5 -23 -26 -105 -50 -168 -50
-40 0 -53 5 -78 29 -16 16 -29 36 -29 44 0 8 -16 31 -35 50 -23 23 -35 44 -35
62 0 15 -11 40 -25 57 -25 30 -31 66 -16 103 6 14 2 28 -15 48 -39 46 -30 101
24 160 31 33 48 30 44 -6z m1161 -1 c7 -17 -4 -27 -58 -52 -69 -32 -215 -22
-236 17 -15 29 -8 32 45 18 54 -13 149 -6 198 15 43 19 45 19 51 2z m56 -391
c24 -170 46 -331 50 -357 9 -55 8 -58 -42 -80 -69 -33 -200 -17 -216 25 -5 12
-16 63 -24 112 -9 50 -37 204 -62 344 -25 139 -44 255 -42 258 2 2 16 -1 31
-7 42 -15 145 -11 201 8 28 10 53 16 56 13 3 -4 25 -145 48 -316z m-1351 -156
c27 -13 72 -24 116 -27 39 -3 80 -11 91 -18 11 -8 32 -14 47 -14 15 0 33 -7
40 -16 43 -53 71 -73 138 -99 41 -15 80 -32 85 -37 20 -20 -101 -1 -160 25
-33 14 -73 29 -89 33 -43 10 -29 -11 24 -38 55 -29 60 -43 18 -52 -43 -8 -138
-46 -138 -55 0 -4 35 -1 78 7 96 17 291 10 382 -13 92 -24 187 -72 320 -161
151 -101 247 -146 316 -147 60 -2 66 -9 29 -33 -26 -17 -34 -37 -12 -29 6 2
28 1 47 -3 l35 -8 -38 -13 c-46 -15 -97 -80 -97 -122 0 -21 -4 -27 -15 -23
-19 8 -19 0 1 -37 16 -33 12 -51 -8 -31 -33 33 -35 7 -9 -74 11 -32 18 -60 16
-62 -2 -2 -13 2 -25 8 -33 18 -34 6 -6 -56 31 -67 31 -67 9 -55 -10 5 -36 14
-58 20 l-40 10 30 -26 30 -26 -30 6 c-17 4 -113 16 -215 27 -101 12 -213 27
-247 34 -35 8 -63 12 -63 10 0 -1 19 -14 43 -28 l42 -26 -73 0 c-85 0 -249 31
-317 60 -26 11 -49 20 -53 20 -3 0 12 -19 33 -41 l40 -41 -40 7 c-95 16 -254
94 -362 177 -34 26 -64 48 -67 48 -2 0 0 -16 6 -36 5 -20 7 -38 5 -41 -9 -9
-111 73 -164 131 -64 70 -109 160 -126 249 -10 53 -15 65 -25 55 -22 -22 -26
2 -15 93 13 99 42 173 99 250 l36 49 -31 -6 c-47 -10 -38 10 25 60 63 49 142
91 224 117 70 23 66 23 118 -2z m3359 -19 c78 -35 203 -129 203 -152 0 -5 -16
-6 -36 -2 l-36 7 41 -54 c24 -31 50 -82 62 -119 23 -75 38 -230 22 -230 -6 0
-14 8 -18 18 -5 11 -14 -11 -26 -68 -10 -46 -31 -109 -46 -139 -30 -59 -138
-174 -191 -204 l-32 -18 0 41 0 42 -47 -40 c-89 -73 -240 -155 -327 -176 -28
-7 -28 -6 18 45 53 58 60 80 16 49 -87 -62 -251 -114 -391 -125 l-84 -6 63 32
c34 18 61 33 59 35 -2 2 -23 -3 -48 -10 -57 -17 -206 -36 -279 -35 l-55 0 65
34 c39 20 57 34 45 35 -42 1 -262 -30 -318 -45 -79 -20 -82 -20 -57 15 12 17
24 49 27 70 4 24 11 40 19 40 30 0 82 68 94 123 11 48 10 58 -8 100 -30 67
-64 82 -184 82 -88 0 -100 2 -120 23 -20 19 -21 24 -8 32 8 5 31 10 50 10 l35
0 -25 20 -25 20 46 0 c72 0 139 25 224 84 239 165 257 176 338 202 70 22 101
26 212 28 72 0 157 -2 190 -6 56 -6 58 -6 30 7 -16 8 -60 22 -97 32 -38 9 -68
21 -68 25 0 4 19 12 43 18 65 17 76 23 46 27 -14 2 -55 -3 -90 -12 -35 -9
-108 -22 -163 -30 -115 -17 -147 -26 -241 -72 -85 -42 -128 -68 -178 -106 -21
-16 -40 -28 -42 -25 -8 8 78 99 133 142 56 43 154 96 202 111 34 10 60 34 60
55 0 13 12 19 49 23 27 3 73 18 102 33 53 26 53 26 118 11 197 -47 361 -49
486 -5 88 31 91 32 142 8z m-1937 -306 c0 -18 -54 -42 -115 -51 -68 -9 -154
17 -155 48 0 4 20 0 45 -9 50 -16 134 -10 175 12 34 19 50 19 50 0z m10 -102
c0 -57 -39 -76 -144 -70 -67 3 -81 7 -97 27 -10 13 -19 33 -19 46 0 22 1 22
38 9 51 -18 98 -17 157 5 28 10 53 19 58 20 4 0 7 -16 7 -37z m240 -167 c16
-8 35 -25 41 -37 11 -20 10 -21 -27 -15 -22 4 -45 3 -52 -2 -13 -8 142 -65
211 -77 20 -3 37 -8 37 -11 0 -2 -9 -16 -21 -32 -11 -15 -23 -47 -26 -71 l-6
-43 -14 27 c-18 35 -26 33 -18 -4 4 -18 3 -30 -4 -30 -6 0 -20 -10 -31 -22
-16 -18 -21 -34 -18 -67 2 -36 -1 -45 -18 -51 -33 -13 -46 -37 -42 -80 3 -33
0 -40 -14 -40 -10 0 -25 -12 -35 -26 -13 -21 -15 -32 -6 -55 6 -16 9 -29 7
-29 -3 0 -58 9 -122 21 -132 23 -184 43 -226 85 -27 28 -28 29 -7 32 27 4 27
7 -9 85 -16 37 -30 69 -30 72 0 3 12 2 27 -1 24 -6 26 -5 19 17 -33 110 -33
134 2 168 15 16 26 33 24 39 -2 6 18 23 45 38 26 15 50 29 52 31 3 2 -3 9 -13
16 -16 12 -12 16 40 39 33 15 68 28 79 31 45 11 128 6 155 -8z m331 -135 c22
-13 49 -61 49 -90 0 -31 -37 -98 -61 -111 -27 -14 -59 -6 -92 25 -41 38 -38
94 9 146 37 41 60 48 95 30z m-136 -209 c70 -46 78 -56 68 -86 -18 -54 -56
-58 -124 -12 -37 25 -48 61 -29 97 13 25 46 26 85 1z m-80 -133 c25 -12 45
-29 46 -37 0 -11 2 -12 6 -3 7 17 23 5 23 -18 0 -49 -76 -67 -124 -29 -28 22
-36 75 -14 97 15 15 9 16 63 -10z m1440 12 c3 -5 -1 -10 -10 -10 -9 0 -13 5
-10 10 3 6 8 10 10 10 2 0 7 -4 10 -10z m-1483 -142 c24 -12 44 -23 46 -24 10
-7 -22 -45 -42 -50 -28 -7 -81 18 -90 41 -8 21 10 55 29 55 8 0 34 -10 57 -22z"/>
<path d="M1970 3780 c-12 -8 -12 -10 5 -10 11 0 27 5 35 10 12 8 12 10 -5 10
-11 0 -27 -5 -35 -10z"/>
<path d="M2223 3454 c-6 -15 27 -58 60 -75 27 -15 22 24 -9 60 -29 35 -42 38
-51 15z"/>
<path d="M2242 3122 c-19 -13 138 -37 175 -27 l28 7 -24 9 c-36 14 -164 22
-179 11z"/>
<path d="M2595 4340 c-6 -10 61 -97 77 -99 9 -1 -3 41 -20 67 -19 29 -49 46
-57 32z"/>
<path d="M2520 4262 c-40 -13 -150 -114 -150 -138 0 -6 21 -14 48 -17 26 -3
56 -9 66 -13 17 -7 18 -4 13 25 -7 32 1 57 25 83 34 36 39 45 26 55 -7 6 -20
8 -28 5z"/>
<path d="M2533 3635 c-40 -19 -78 -35 -84 -35 -8 0 -9 -13 -5 -42 12 -77 57
-130 121 -144 29 -6 29 -5 -15 34 -51 45 -50 59 3 37 42 -17 77 -20 77 -5 0 6
-10 10 -23 10 -43 0 -37 13 15 34 33 13 57 30 65 46 8 17 19 24 33 22 45 -7
12 32 -52 61 -49 23 -52 22 -135 -18z m82 -25 c9 -15 -25 -60 -50 -66 -24 -6
-65 10 -65 26 0 12 69 49 92 50 9 0 20 -4 23 -10z"/>
<path d="M3270 3082 c0 -5 26 -16 58 -26 31 -10 75 -27 97 -38 l40 -19 -30 26
c-46 39 -165 80 -165 57z"/>
<path d="M2706 2649 c-56 -13 -60 -23 -7 -15 45 7 92 26 61 25 -8 -1 -33 -5
-54 -10z"/>
<path d="M3713 1805 c3 -16 0 -46 -7 -65 -8 -25 -9 -46 -2 -73 8 -28 7 -46 -3
-70 -8 -17 -15 -53 -16 -80 -2 -26 -7 -53 -13 -60 -18 -23 -24 -57 -10 -57 25
0 51 59 45 101 -3 26 1 50 15 78 17 35 18 45 8 76 -6 19 -15 37 -20 40 -4 2 1
22 12 44 18 37 18 41 3 68 l-16 28 4 -30z"/>
<path d="M3098 2423 c7 -3 16 -2 19 1 4 3 -2 6 -13 5 -11 0 -14 -3 -6 -6z"/>
<path d="M3020 2410 c-20 -6 -21 -8 -5 -8 11 0 31 4 45 8 20 6 21 8 5 8 -11 0
-31 -4 -45 -8z"/>
<path d="M1887 2311 c57 -28 127 -72 158 -96 30 -25 55 -42 54 -38 -2 30 -208
156 -289 178 -14 4 21 -16 77 -44z"/>
<path d="M2135 2130 c10 -11 20 -20 23 -20 3 0 -3 9 -13 20 -10 11 -20 20 -23
20 -3 0 3 -9 13 -20z"/>
<path d="M3225 2170 c-77 -28 -159 -57 -182 -66 -44 -16 -57 -34 -25 -34 30 0
365 124 370 138 6 19 -13 15 -163 -38z"/>
<path d="M3205 2069 c-93 -32 -176 -62 -184 -64 -10 -4 -11 -9 -4 -16 12 -12
374 110 381 129 6 19 -13 15 -193 -49z"/>
<path d="M2750 2019 c-80 -28 -149 -54 -154 -59 -9 -9 41 -310 54 -324 7 -7
300 86 319 101 2 1 -1 42 -8 90 -32 239 -33 243 -50 242 -9 0 -81 -23 -161
-50z m170 -114 c6 -55 14 -108 17 -118 8 -30 -23 -29 -71 4 -35 23 -45 36 -41
48 4 9 9 33 12 54 13 88 -89 108 -117 23 -12 -39 -5 -82 17 -94 12 -7 7 -22
-26 -83 -23 -41 -41 -72 -41 -69 0 3 -11 64 -24 135 -14 72 -22 133 -18 137 4
4 66 27 137 51 114 39 131 42 137 28 3 -9 11 -61 18 -116z m-103 1 c-4 -9 -11
-16 -17 -16 -11 0 -14 33 -3 44 11 10 26 -11 20 -28z"/>
<path d="M2872 1848 c6 -18 28 -21 28 -4 0 9 -7 16 -16 16 -9 0 -14 -5 -12
-12z"/>
<path d="M3280 2004 c-63 -24 -145 -54 -182 -66 -40 -13 -68 -28 -68 -36 0
-16 -12 -19 218 61 150 52 193 75 156 83 -5 1 -61 -18 -124 -42z"/>
<path d="M3106 1847 c-60 -22 -94 -56 -43 -43 46 11 117 45 117 56 0 13 -5 13
-74 -13z"/>
<path d="M2886 1622 c-121 -43 -222 -84 -224 -91 -5 -16 -16 -19 247 73 113
39 206 77 209 84 2 6 0 12 -5 11 -4 0 -107 -35 -227 -77z"/>
<path d="M2960 1559 c-58 -22 -144 -53 -192 -70 -53 -19 -88 -37 -88 -45 0 -8
1 -14 3 -14 22 2 402 150 405 158 6 18 -14 14 -128 -29z"/>
<path d="M2900 1446 c-112 -40 -206 -78 -208 -85 -2 -6 2 -11 10 -11 27 0 412
147 416 158 2 7 0 12 -5 12 -4 -1 -100 -34 -213 -74z"/>
<path d="M2901 1356 c-107 -40 -197 -78 -199 -84 -2 -7 0 -12 5 -12 4 0 99 32
210 72 127 44 203 76 203 85 0 7 -6 13 -12 12 -7 -1 -101 -34 -207 -73z"/>
<path d="M2939 173 c-13 -16 -12 -17 4 -4 16 13 21 21 13 21 -2 0 -10 -8 -17
-17z"/>
</g>
</svg>
